<svg width="110.7" height="63.7" viewBox="0 0 110.7 63.7" xmlns="http://www.w3.org/2000/svg"><g id="svgGroup" stroke-linecap="round" fill-rule="evenodd" font-size="9pt" stroke="#000" stroke-width="0mm" fill="#15803d" style="stroke:#000;stroke-width:0mm;fill:#15803d"><path d="M 23.7 31.6 L 20.8 27 Q 17 21 15.2 18.4 A 30.189 30.189 0 0 0 13.986 16.761 Q 13.365 15.982 12.769 15.364 A 12.977 12.977 0 0 0 11.8 14.45 A 6.205 6.205 0 0 0 10.428 13.558 A 4.743 4.743 0 0 0 8.4 13.1 A 3.125 3.125 0 0 0 8.024 13.126 Q 7.615 13.177 7.027 13.324 A 17.524 17.524 0 0 0 6.55 13.45 A 12.834 12.834 0 0 1 5.813 13.635 Q 5.076 13.795 4.538 13.8 A 3.729 3.729 0 0 1 4.5 13.8 A 5.239 5.239 0 0 1 3.264 13.659 A 4.462 4.462 0 0 1 2.5 13.4 A 5.695 5.695 0 0 1 1.349 12.738 Q 0.632 12.195 0.296 11.485 A 3.199 3.199 0 0 1 0 10.1 Q 0 9.1 0.4 8.4 Q 0.992 7.068 2.544 5.872 A 13.252 13.252 0 0 1 3.75 5.05 A 9.465 9.465 0 0 1 6.179 4.032 Q 8.122 3.5 10.7 3.5 A 13.433 13.433 0 0 1 14.518 4.023 A 11.223 11.223 0 0 1 17.8 5.6 A 20.57 20.57 0 0 1 21.033 8.437 A 27.414 27.414 0 0 1 23.35 11.3 Q 25.895 14.892 30.38 22.566 A 428.567 428.567 0 0 1 30.4 22.6 A 779.969 779.969 0 0 1 34.722 16.802 Q 40.112 9.648 43.192 5.998 A 68.645 68.645 0 0 1 44.4 4.6 Q 46.8 1.8 48.2 1 A 6.126 6.126 0 0 1 51.247 0.201 A 7.199 7.199 0 0 1 51.3 0.2 A 5.097 5.097 0 0 1 52.537 0.341 A 3.365 3.365 0 0 1 54.35 1.45 A 4.284 4.284 0 0 1 55.21 3.166 Q 55.373 3.802 55.396 4.552 A 8.101 8.101 0 0 1 55.4 4.8 A 10.612 10.612 0 0 1 55.171 6.928 Q 54.875 8.369 54.2 10 A 60.53 60.53 0 0 0 51.449 12.696 Q 50.025 14.175 48.477 15.944 A 129.215 129.215 0 0 0 46.3 18.5 Q 43.275 22.144 39.494 27.017 A 569.051 569.051 0 0 0 35.9 31.7 A 351.595 351.595 0 0 0 38.519 35.922 Q 42.25 41.838 44.8 45.25 Q 48.2 49.8 51.3 51.5 A 12.529 12.529 0 0 0 52.677 52.132 Q 53.373 52.404 54.17 52.635 A 20.907 20.907 0 0 0 54.4 52.7 Q 56.394 53.307 57.486 53.914 A 6.147 6.147 0 0 1 57.8 54.1 A 2.25 2.25 0 0 1 58.865 55.72 A 3.133 3.133 0 0 1 58.9 56.2 A 4.7 4.7 0 0 1 58.505 58.164 Q 57.886 59.527 56.3 60.35 Q 53.814 61.641 50.323 61.698 A 19.888 19.888 0 0 1 50 61.7 Q 45.2 61.7 40.55 56.4 A 67.364 67.364 0 0 1 37.463 52.58 Q 33.869 47.819 29.4 40.6 A 814.832 814.832 0 0 1 26.381 44.553 Q 22.659 49.395 19.81 52.929 A 265.472 265.472 0 0 1 18.9 54.05 A 120.936 120.936 0 0 1 15.863 57.639 Q 14.339 59.365 12.938 60.793 A 57.61 57.61 0 0 1 11.3 62.4 Q 10.6 63 9.3 63.35 A 12.84 12.84 0 0 1 8.454 63.55 Q 8.031 63.633 7.66 63.67 A 5.612 5.612 0 0 1 7.1 63.7 A 4.705 4.705 0 0 1 3.596 62.171 A 6.469 6.469 0 0 1 3.35 61.9 A 7.929 7.929 0 0 1 2.376 60.508 Q 1.805 59.453 1.712 58.365 A 4.98 4.98 0 0 1 1.7 58.2 A 0.516 0.516 0 0 1 1.739 58.039 Q 1.906 57.582 2.8 56.2 A 14.524 14.524 0 0 1 3.698 54.972 Q 4.195 54.358 4.82 53.69 A 35.661 35.661 0 0 1 6.2 52.3 A 19.994 19.994 0 0 0 7.729 50.994 Q 9.18 49.638 11.009 47.55 A 94.142 94.142 0 0 0 12.75 45.5 A 257.041 257.041 0 0 0 14.953 42.794 Q 17.409 39.739 20.622 35.594 A 942.065 942.065 0 0 0 23.7 31.6 Z M 73 0 Q 74.9 0 76.45 1 Q 77.81 1.877 78.207 3.908 A 8.098 8.098 0 0 1 78.3 4.5 Q 79.5 12.4 79.85 20.25 A 333.939 333.939 0 0 1 80.101 28.06 Q 80.188 32.156 80.199 36.695 A 548.518 548.518 0 0 1 80.2 38 Q 80.2 41.454 79.727 49.575 A 788.304 788.304 0 0 1 79.5 53.3 Q 83.127 53.63 85.395 53.688 A 35.573 35.573 0 0 0 86.3 53.7 Q 88 53.7 94 53.2 A 58.112 58.112 0 0 1 96.499 52.896 Q 98.475 52.7 100.1 52.7 Q 102.5 52.7 104.5 53.15 A 18.296 18.296 0 0 1 107.168 53.978 A 22.211 22.211 0 0 1 108.6 54.6 Q 110.466 55.667 110.674 57.76 A 5.472 5.472 0 0 1 110.7 58.3 Q 110.7 60.3 109.45 61.9 A 4.889 4.889 0 0 1 108.56 62.795 A 3.329 3.329 0 0 1 106.5 63.5 Q 105.596 63.5 103.895 63.273 A 61.418 61.418 0 0 1 102.7 63.1 Q 98 62.4 93.7 62.4 Q 92.3 62.4 90.55 62.55 Q 88.866 62.695 88.061 62.7 A 9.117 9.117 0 0 1 88 62.7 Q 85.6 63 83.2 63 Q 78.3 63 74.4 62.5 Q 72.4 62.3 70.4 60.95 A 4.33 4.33 0 0 1 68.452 57.801 A 6.051 6.051 0 0 1 68.4 57 A 24.062 24.062 0 0 1 68.414 56.273 Q 68.47 54.491 68.75 50.078 A 741.933 741.933 0 0 1 68.8 49.3 A 483.43 483.43 0 0 0 69.106 44.457 Q 69.377 39.777 69.462 36.401 A 112.593 112.593 0 0 0 69.5 33.6 Q 69.5 29.4 69.1 24.8 A 7928.068 7928.068 0 0 1 68.961 23.195 Q 68.704 20.23 68.614 19.169 A 226.438 226.438 0 0 1 68.6 19 A 208.137 208.137 0 0 1 68.088 13.511 Q 67.7 8.61 67.7 5 Q 67.7 3.39 68.18 2.316 A 3.512 3.512 0 0 1 68.95 1.2 A 3.704 3.704 0 0 1 70.222 0.423 Q 71.321 0.007 72.95 0 A 12.987 12.987 0 0 1 73 0 Z"/></g></svg>