<svg viewBox="0 0 2133 1200" style="background-color:#dfe6e9" title="AANTALLEN.ALS-functie" alt="AANTALLEN.ALS-functie" font-family="Sans,Arial" dy="0.25em" text-anchor="middle" xmlns="http://www.w3.org/2000/svg"><g><text x="2047" y="1128" fill="#b2bec3" font-weight="normal" font-size="24" text-anchor="end">door Tristan Bains</text></g><g><text x="2047" y="1092" fill="#b2bec3" font-weight="bold" font-size="36" text-anchor="end">Excel in een dag</text></g><g id="box" transform="translate(566.6666666666665 100.0)"><g id="E2"><circle cx="412.5" cy="145.5" r="35.6" fill="#ffeaa7" stroke="#636e72" stroke-width="4"></circle><text x="412" y="160" fill="#636e72" font-size="44.5">1</text></g><g id="G2"><circle cx="718.5" cy="145.5" r="35.6" fill="#55efc4" stroke="#636e72" stroke-width="4"></circle><text x="718" y="160" fill="#636e72" font-size="44.5">2</text></g><g id="C3"><rect x="24" y="202" width="124" height="89" fill="transparent" stroke="transparent" stroke-width="4"></rect><text x="86" y="261" fill="#b2bec3" font-size="44.5">Klant</text></g><g id="D3"><rect x="160" y="202" width="141" height="89" fill="transparent" stroke="transparent" stroke-width="4"></rect><text x="230" y="261" fill="#b2bec3" font-size="44.5">Bedrag</text></g><g id="E3"><rect x="313" y="202" width="199" height="89" fill="transparent" stroke="transparent" stroke-width="4"></rect><text x="412" y="261" fill="#636e72" font-size="44.5">Account</text></g><g id="G3"><rect x="619" y="202" width="199" height="89" fill="transparent" stroke="transparent" stroke-width="4"></rect><text x="718" y="261" fill="#636e72" font-size="44.5">Account</text></g><g id="H3"><rect x="830" y="202" width="141" height="89" fill="transparent" stroke="transparent" stroke-width="4"></rect><text x="900" y="261" fill="#636e72" font-size="44.5">Aantal</text></g><g id="C4"><rect x="24" y="303" width="124" height="89" fill="#C9D2D6" stroke="transparent" stroke-width="4"></rect><text x="86" y="362" fill="#b2bec3" font-size="44.5">SM</text></g><g id="D4"><rect x="160" y="303" width="141" height="89" fill="#C9D2D6" stroke="transparent" stroke-width="4"></rect><text x="230" y="362" fill="#b2bec3" font-size="44.5">300</text></g><g id="E4"><rect x="313" y="303" width="199" height="89" fill="#ffeaa7" stroke="#636e72" stroke-width="4"></rect><text x="412" y="362" fill="#636e72" font-size="44.5">Pro</text></g><g id="G4"><rect x="619" y="303" width="199" height="89" fill="#C9D2D6" stroke="transparent" stroke-width="4"></rect><text x="718" y="362" fill="#b2bec3" font-size="44.5">Pro</text></g><g id="H4"><rect x="830" y="303" width="141" height="89" fill="#C9D2D6" stroke="transparent" stroke-width="4"></rect><text x="900" y="362" fill="#b2bec3" font-size="44.5">5</text></g><g id="C5"><rect x="24" y="404" width="124" height="89" fill="#C9D2D6" stroke="transparent" stroke-width="4"></rect><text x="86" y="463" fill="#b2bec3" font-size="44.5">KP</text></g><g id="D5"><rect x="160" y="404" width="141" height="89" fill="#C9D2D6" stroke="transparent" stroke-width="4"></rect><text x="230" y="463" fill="#b2bec3" font-size="44.5">250</text></g><g id="E5"><rect x="313" y="404" width="199" height="89" fill="#ffeaa7" stroke="#636e72" stroke-width="4"></rect><text x="412" y="463" fill="#636e72" font-size="44.5">Pro</text></g><g id="G5"><rect x="619" y="404" width="199" height="89" fill="#55efc4" stroke="#636e72" stroke-width="4"></rect><text x="718" y="463" fill="#636e72" font-size="44.5">Standard</text></g><g id="H5"><rect x="830" y="404" width="141" height="89" fill="#2d3436" stroke="#2d3436" stroke-width="4"></rect><text x="900" y="463" fill="#ffffff" font-size="44.5">2</text></g><g id="C6"><rect x="24" y="505" width="124" height="89" fill="#C9D2D6" stroke="transparent" stroke-width="4"></rect><text x="86" y="564" fill="#b2bec3" font-size="44.5">MV</text></g><g id="D6"><rect x="160" y="505" width="141" height="89" fill="#C9D2D6" stroke="transparent" stroke-width="4"></rect><text x="230" y="564" fill="#b2bec3" font-size="44.5">250</text></g><g id="E6"><rect x="313" y="505" width="199" height="89" fill="#ffeaa7" stroke="#636e72" stroke-width="4"></rect><text x="412" y="564" fill="#636e72" font-size="44.5">Pro</text></g><g id="H5_comment"><line x1="900.5" y1="505" x2="900.5" y2="549.5" stroke-width="4" stroke="#2d3436"></line><text x="900.5" y="594.0" fill="#2d3436" font-size="44.5"><tspan x="900.5" y="594.0" dx="">AANTALLEN.ALS()</tspan><tspan x="900.5" y="647.4" dx="">functie</tspan></text></g><g id="C7"><rect x="24" y="606" width="124" height="89" fill="#C9D2D6" stroke="transparent" stroke-width="4"></rect><text x="86" y="665" fill="#b2bec3" font-size="44.5">JD</text></g><g id="D7"><rect x="160" y="606" width="141" height="89" fill="#C9D2D6" stroke="transparent" stroke-width="4"></rect><text x="230" y="665" fill="#b2bec3" font-size="44.5">300</text></g><g id="E7"><rect x="313" y="606" width="199" height="89" fill="#ffeaa7" stroke="#636e72" stroke-width="4"></rect><text x="412" y="665" fill="#636e72" font-size="44.5">Pro</text></g><g id="C8"><rect x="24" y="707" width="124" height="89" fill="#C9D2D6" stroke="transparent" stroke-width="4"></rect><text x="86" y="766" fill="#b2bec3" font-size="44.5">RvdG</text></g><g id="D8"><rect x="160" y="707" width="141" height="89" fill="#C9D2D6" stroke="transparent" stroke-width="4"></rect><text x="230" y="766" fill="#b2bec3" font-size="44.5">100</text></g><g id="E8"><rect x="313" y="707" width="199" height="89" fill="#fdcb6e" stroke="#636e72" stroke-width="4"></rect><text x="412" y="766" fill="#636e72" font-size="44.5">Standard</text></g><g id="E8_comment"><line x1="524" y1="751.5" x2="568.5" y2="751.5" stroke-width="4" stroke="#e17055"></line><text x="524" y="766" fill="#e17055" font-size="44.5" text-anchor="start" dx="55.625">Match! +1</text></g><g id="C9"><rect x="24" y="808" width="124" height="89" fill="#C9D2D6" stroke="transparent" stroke-width="4"></rect><text x="86" y="867" fill="#b2bec3" font-size="44.5">WG</text></g><g id="D9"><rect x="160" y="808" width="141" height="89" fill="#C9D2D6" stroke="transparent" stroke-width="4"></rect><text x="230" y="867" fill="#b2bec3" font-size="44.5">300</text></g><g id="E9"><rect x="313" y="808" width="199" height="89" fill="#ffeaa7" stroke="#636e72" stroke-width="4"></rect><text x="412" y="867" fill="#636e72" font-size="44.5">Pro</text></g><g id="C10"><rect x="24" y="909" width="124" height="89" fill="#C9D2D6" stroke="transparent" stroke-width="4"></rect><text x="86" y="968" fill="#b2bec3" font-size="44.5">BB</text></g><g id="D10"><rect x="160" y="909" width="141" height="89" fill="#C9D2D6" stroke="transparent" stroke-width="4"></rect><text x="230" y="968" fill="#b2bec3" font-size="44.5">80</text></g><g id="E10"><rect x="313" y="909" width="199" height="89" fill="#fdcb6e" stroke="#636e72" stroke-width="4"></rect><text x="412" y="968" fill="#636e72" font-size="44.5">Standard</text></g><g id="E10_comment"><line x1="524" y1="953.5" x2="568.5" y2="953.5" stroke-width="4" stroke="#e17055"></line><text x="524" y="968" fill="#e17055" font-size="44.5" text-anchor="start" dx="55.625">Match! +1</text></g></g></svg>