<svg viewBox="0 0 2133 1200" style="background-color:#dfe6e9" title="ALS-functie-r" alt="ALS-functie-r" font-family="Sans,Arial" dy="0.25em" text-anchor="middle" xmlns="http://www.w3.org/2000/svg"><g><text x="2047" y="1128" fill="#b2bec3" font-weight="normal" font-size="24" text-anchor="end">door Tristan Bains</text></g><g><text x="2047" y="1092" fill="#b2bec3" font-weight="bold" font-size="36" text-anchor="end">Excel in een dag</text></g><g id="box" transform="translate(566.6666666666665 100.0)"><g id="C1"><circle cx="192.0" cy="44.5" r="35.6" fill="#55efc4" stroke="#636e72" stroke-width="4"></circle><text x="192" y="59" fill="#636e72" font-size="44.5">2</text></g><g id="D1"><rect x="293" y="0" width="197" height="89" fill="#55efc4" stroke="#636e72" stroke-width="4"></rect><text x="391" y="59" fill="#636e72" font-size="44.5">5.5</text></g><g id="D1_comment"><line x1="502" y1="44.5" x2="546.5" y2="44.5" stroke-width="4" stroke="#e17055"></line><text x="502" y="59" fill="#e17055" font-size="44.5" text-anchor="start" dx="55.625"><tspan x="502.0" y="59.0" dx="55.625">Grenswaarde, we testen</tspan><tspan x="502.0" y="112.4" dx="55.625">of cijfer >= 5.5</tspan></text></g><g id="C3"><rect x="103" y="202" width="178" height="89" fill="transparent" stroke="transparent" stroke-width="4"></rect><text x="192" y="261" fill="#b2bec3" font-size="44.5">Student</text></g><g id="D3"><rect x="293" y="202" width="197" height="89" fill="transparent" stroke="transparent" stroke-width="4"></rect><text x="391" y="261" fill="#636e72" font-size="44.5">Cijfer</text></g><g id="E3"><rect x="502" y="202" width="168" height="89" fill="transparent" stroke="transparent" stroke-width="4"></rect><text x="586" y="261" fill="#636e72" font-size="44.5">Status</text></g><g id="C4"><rect x="103" y="303" width="178" height="89" fill="#C9D2D6" stroke="transparent" stroke-width="4"></rect><text x="192" y="362" fill="#b2bec3" font-size="44.5">DvW</text></g><g id="D4"><rect x="293" y="303" width="197" height="89" fill="#b2bec3" stroke="#636e72" stroke-width="4"></rect><text x="391" y="362" fill="#636e72" font-size="44.5">6</text></g><g id="E4"><rect x="502" y="303" width="168" height="89" fill="#636e72" stroke="#636e72" stroke-width="4"></rect><text x="586" y="362" fill="#ffffff" font-size="44.5">V</text></g><g id="E4_comment"><line x1="682" y1="347.5" x2="726.5" y2="347.5" stroke-width="4" stroke="#b2bec3"></line><text x="682" y="362" fill="#b2bec3" font-size="44.5" text-anchor="start" dx="55.625"><tspan x="682.0" y="362.0" dx="55.625">groter dan 5.5,</tspan><tspan x="682.0" y="415.4" dx="55.625">dus "V"</tspan></text></g><g id="C5"><rect x="103" y="404" width="178" height="89" fill="#C9D2D6" stroke="transparent" stroke-width="4"></rect><text x="192" y="463" fill="#b2bec3" font-size="44.5">YvA</text></g><g id="D5"><rect x="293" y="404" width="197" height="89" fill="#b2bec3" stroke="#636e72" stroke-width="4"></rect><text x="391" y="463" fill="#636e72" font-size="44.5">7.3</text></g><g id="E5"><rect x="502" y="404" width="168" height="89" fill="#636e72" stroke="#636e72" stroke-width="4"></rect><text x="586" y="463" fill="#ffffff" font-size="44.5">V</text></g><g id="B6"><circle cx="51.5" cy="549.5" r="35.6" fill="#ffeaa7" stroke="#636e72" stroke-width="4"></circle><text x="51" y="564" fill="#636e72" font-size="44.5">1</text></g><g id="C6"><rect x="103" y="505" width="178" height="89" fill="#C9D2D6" stroke="transparent" stroke-width="4"></rect><text x="192" y="564" fill="#b2bec3" font-size="44.5">FM</text></g><g id="D6"><rect x="293" y="505" width="197" height="89" fill="#ffeaa7" stroke="#636e72" stroke-width="4"></rect><text x="391" y="564" fill="#636e72" font-size="44.5">5.4</text></g><g id="E6"><rect x="502" y="505" width="168" height="89" fill="#2d3436" stroke="#2d3436" stroke-width="4"></rect><text x="586" y="564" fill="#ffffff" font-size="44.5">OV</text></g><g id="E6_comment"><line x1="682" y1="549.5" x2="726.5" y2="549.5" stroke-width="4" stroke="#2d3436"></line><text x="682" y="564" fill="#2d3436" font-size="44.5" text-anchor="start" dx="55.625">ALS()-functie</text></g><g id="C7"><rect x="103" y="606" width="178" height="89" fill="#C9D2D6" stroke="transparent" stroke-width="4"></rect><text x="192" y="665" fill="#b2bec3" font-size="44.5">RvC</text></g><g id="D7"><rect x="293" y="606" width="197" height="89" fill="#b2bec3" stroke="#636e72" stroke-width="4"></rect><text x="391" y="665" fill="#636e72" font-size="44.5">5.7</text></g><g id="E7"><rect x="502" y="606" width="168" height="89" fill="#636e72" stroke="#636e72" stroke-width="4"></rect><text x="586" y="665" fill="#ffffff" font-size="44.5">V</text></g><g id="C8"><rect x="103" y="707" width="178" height="89" fill="#C9D2D6" stroke="transparent" stroke-width="4"></rect><text x="192" y="766" fill="#b2bec3" font-size="44.5">LW</text></g><g id="D8"><rect x="293" y="707" width="197" height="89" fill="#b2bec3" stroke="#636e72" stroke-width="4"></rect><text x="391" y="766" fill="#636e72" font-size="44.5">5.5</text></g><g id="E8"><rect x="502" y="707" width="168" height="89" fill="#636e72" stroke="#636e72" stroke-width="4"></rect><text x="586" y="766" fill="#ffffff" font-size="44.5">V</text></g><g id="E8_comment"><line x1="682" y1="751.5" x2="726.5" y2="751.5" stroke-width="4" stroke="#b2bec3"></line><text x="682" y="766" fill="#b2bec3" font-size="44.5" text-anchor="start" dx="55.625"><tspan x="682.0" y="766.0" dx="55.625">gelijk aan 5.5,</tspan><tspan x="682.0" y="819.4" dx="55.625">dus "V"</tspan></text></g><g id="C9"><rect x="103" y="808" width="178" height="89" fill="#C9D2D6" stroke="transparent" stroke-width="4"></rect><text x="192" y="867" fill="#b2bec3" font-size="44.5">FOH</text></g><g id="D9"><rect x="293" y="808" width="197" height="89" fill="#b2bec3" stroke="#636e72" stroke-width="4"></rect><text x="391" y="867" fill="#636e72" font-size="44.5">6.1</text></g><g id="E9"><rect x="502" y="808" width="168" height="89" fill="#636e72" stroke="#636e72" stroke-width="4"></rect><text x="586" y="867" fill="#ffffff" font-size="44.5">V</text></g><g id="C10"><rect x="103" y="909" width="178" height="89" fill="#C9D2D6" stroke="transparent" stroke-width="4"></rect><text x="192" y="968" fill="#b2bec3" font-size="44.5">EY</text></g><g id="D10"><rect x="293" y="909" width="197" height="89" fill="#b2bec3" stroke="#636e72" stroke-width="4"></rect><text x="391" y="968" fill="#636e72" font-size="44.5">4.4</text></g><g id="E10"><rect x="502" y="909" width="168" height="89" fill="#636e72" stroke="#636e72" stroke-width="4"></rect><text x="586" y="968" fill="#ffffff" font-size="44.5">OV</text></g><g id="E10_comment"><line x1="682" y1="953.5" x2="726.5" y2="953.5" stroke-width="4" stroke="#b2bec3"></line><text x="682" y="968" fill="#b2bec3" font-size="44.5" text-anchor="start" dx="55.625"><tspan x="682.0" y="968.0" dx="55.625">kleiner dan 5.5,</tspan><tspan x="682.0" y="1021.4" dx="55.625">dus "OV"</tspan></text></g></g></svg>