<svg viewBox="0 0 2133 1200" style="background-color:#dfe6e9" title="ALS-functie-met-of" alt="ALS-functie-met-of" font-family="Sans,Arial" dy="0.25em" text-anchor="middle" xmlns="http://www.w3.org/2000/svg"><g id="box" transform="translate(566.6666666666665 100.0)"><g id="D3"><circle cx="301.5" cy="246.5" r="35.6" fill="#ffeaa7" stroke="#636e72" stroke-width="4"></circle><text x="301" y="261" fill="#636e72" font-size="44.5">1</text></g><g id="E3"><circle cx="458.5" cy="246.5" r="35.6" fill="#74b9ff" stroke="#636e72" stroke-width="4"></circle><text x="458" y="261" fill="#636e72" font-size="44.5">2</text></g><g id="C4"><rect x="101" y="303" width="116" height="89" fill="transparent" stroke="transparent" stroke-width="4"></rect><text x="159" y="362" fill="#b2bec3" font-size="44.5">Dag</text></g><g id="D4"><rect x="229" y="303" width="145" height="89" fill="transparent" stroke="transparent" stroke-width="4"></rect><text x="301" y="362" fill="#636e72" font-size="44.5">Temp</text></g><g id="E4"><rect x="386" y="303" width="145" height="89" fill="transparent" stroke="transparent" stroke-width="4"></rect><text x="458" y="362" fill="#636e72" font-size="44.5">Regen</text></g><g id="G4"><rect x="632" y="303" width="328" height="89" fill="transparent" stroke="transparent" stroke-width="4"></rect><text x="796" y="362" fill="#636e72" font-size="44.5">Mening</text></g><g id="C5"><rect x="101" y="404" width="116" height="89" fill="#C9D2D6" stroke="transparent" stroke-width="4"></rect><text x="159" y="463" fill="#b2bec3" font-size="44.5">1</text></g><g id="D5"><rect x="229" y="404" width="145" height="89" fill="#b2bec3" stroke="#636e72" stroke-width="4"></rect><text x="301" y="463" fill="#636e72" font-size="44.5">15</text></g><g id="E5"><rect x="386" y="404" width="145" height="89" fill="#b2bec3" stroke="#636e72" stroke-width="4"></rect><text x="458" y="463" fill="#636e72" font-size="44.5">11</text></g><g id="G5"><rect x="632" y="404" width="328" height="89" fill="#636e72" stroke="#636e72" stroke-width="4"></rect><text x="796" y="463" fill="#ffffff" font-size="44.5">Koud en nat</text></g><g id="C6"><rect x="101" y="505" width="116" height="89" fill="#C9D2D6" stroke="transparent" stroke-width="4"></rect><text x="159" y="564" fill="#b2bec3" font-size="44.5">2</text></g><g id="D6"><rect x="229" y="505" width="145" height="89" fill="#b2bec3" stroke="#636e72" stroke-width="4"></rect><text x="301" y="564" fill="#636e72" font-size="44.5">18</text></g><g id="E6"><rect x="386" y="505" width="145" height="89" fill="#b2bec3" stroke="#636e72" stroke-width="4"></rect><text x="458" y="564" fill="#636e72" font-size="44.5">0</text></g><g id="G6"><rect x="632" y="505" width="328" height="89" fill="#636e72" stroke="#636e72" stroke-width="4"></rect><text x="796" y="564" fill="#ffffff" font-size="44.5">Warm of droog</text></g><g id="C7"><rect x="101" y="606" width="116" height="89" fill="#C9D2D6" stroke="transparent" stroke-width="4"></rect><text x="159" y="665" fill="#b2bec3" font-size="44.5">3</text></g><g id="D7"><rect x="229" y="606" width="145" height="89" fill="#b2bec3" stroke="#636e72" stroke-width="4"></rect><text x="301" y="665" fill="#636e72" font-size="44.5">21</text></g><g id="E7"><rect x="386" y="606" width="145" height="89" fill="#b2bec3" stroke="#636e72" stroke-width="4"></rect><text x="458" y="665" fill="#636e72" font-size="44.5">1</text></g><g id="G7"><rect x="632" y="606" width="328" height="89" fill="#636e72" stroke="#636e72" stroke-width="4"></rect><text x="796" y="665" fill="#ffffff" font-size="44.5">Warm of droog</text></g><g id="C8"><rect x="101" y="707" width="116" height="89" fill="#C9D2D6" stroke="transparent" stroke-width="4"></rect><text x="159" y="766" fill="#b2bec3" font-size="44.5">4</text></g><g id="D8"><rect x="229" y="707" width="145" height="89" fill="#ffeaa7" stroke="#636e72" stroke-width="4"></rect><text x="301" y="766" fill="#636e72" font-size="44.5">22</text></g><g id="E8"><rect x="386" y="707" width="145" height="89" fill="#74b9ff" stroke="#636e72" stroke-width="4"></rect><text x="458" y="766" fill="#636e72" font-size="44.5">12</text></g><g id="G8"><rect x="632" y="707" width="328" height="89" fill="#2d3436" stroke="#2d3436" stroke-width="4"></rect><text x="796" y="766" fill="#ffffff" font-size="44.5">Warm of droog</text></g><g id="G8_comment"><line x1="972" y1="751.5" x2="1016.5" y2="751.5" stroke-width="4" stroke="#2d3436"></line><text x="972" y="766" fill="#2d3436" font-size="44.5" text-anchor="start" dx="55.625">ALS() met OF()</text></g><g id="C9"><rect x="101" y="808" width="116" height="89" fill="#C9D2D6" stroke="transparent" stroke-width="4"></rect><text x="159" y="867" fill="#b2bec3" font-size="44.5">5</text></g><g id="D9"><rect x="229" y="808" width="145" height="89" fill="#b2bec3" stroke="#636e72" stroke-width="4"></rect><text x="301" y="867" fill="#636e72" font-size="44.5">17</text></g><g id="E9"><rect x="386" y="808" width="145" height="89" fill="#b2bec3" stroke="#636e72" stroke-width="4"></rect><text x="458" y="867" fill="#636e72" font-size="44.5">0</text></g><g id="G9"><rect x="632" y="808" width="328" height="89" fill="#636e72" stroke="#636e72" stroke-width="4"></rect><text x="796" y="867" fill="#ffffff" font-size="44.5">Warm of droog</text></g></g></svg>