<svg viewBox="0 0 2133 1200" style="background-color:#dfe6e9" title="Als-minimaal-aantal-keer" alt="Als-minimaal-aantal-keer" font-family="Sans,Arial" dy="0.25em" text-anchor="middle" xmlns="http://www.w3.org/2000/svg"><g><text x="2047" y="1128" fill="#b2bec3" font-weight="normal" font-size="24" text-anchor="end">door Tristan Bains</text></g><g><text x="2047" y="1092" fill="#b2bec3" font-weight="bold" font-size="36" text-anchor="end">Excel in een dag</text></g><g id="box" transform="translate(566.6666666666665 100.0)"><g id="A2"><circle cx="41.5" cy="145.5" r="35.6" fill="#55efc4" stroke="#636e72" stroke-width="4"></circle><text x="41" y="160" fill="#636e72" font-size="44.5">2</text></g><g id="B2"><rect x="95" y="101" width="158" height="89" fill="transparent" stroke="transparent" stroke-width="4"></rect><text x="174" y="160" fill="#636e72" font-size="44.5">Min</text></g><g id="C2"><rect x="265" y="101" width="108" height="89" fill="#55efc4" stroke="#636e72" stroke-width="4"></rect><text x="319" y="160" fill="#636e72" font-size="44.5">3</text></g><g id="B4"><rect x="95" y="303" width="158" height="89" fill="transparent" stroke="transparent" stroke-width="4"></rect><text x="174" y="362" fill="#b2bec3" font-size="44.5">Student</text></g><g id="C4"><rect x="265" y="303" width="108" height="89" fill="transparent" stroke="transparent" stroke-width="4"></rect><text x="319" y="362" fill="#636e72" font-size="44.5">Les 1</text></g><g id="D4"><rect x="385" y="303" width="108" height="89" fill="transparent" stroke="transparent" stroke-width="4"></rect><text x="439" y="362" fill="#636e72" font-size="44.5">Les 2</text></g><g id="E4"><rect x="505" y="303" width="108" height="89" fill="transparent" stroke="transparent" stroke-width="4"></rect><text x="559" y="362" fill="#636e72" font-size="44.5">Les 3</text></g><g id="F4"><rect x="625" y="303" width="108" height="89" fill="transparent" stroke="transparent" stroke-width="4"></rect><text x="679" y="362" fill="#636e72" font-size="44.5">Les 4</text></g><g id="G4"><rect x="745" y="303" width="216" height="89" fill="transparent" stroke="transparent" stroke-width="4"></rect><text x="853" y="362" fill="#636e72" font-size="44.5">Status</text></g><g id="B5"><rect x="95" y="404" width="158" height="89" fill="#C9D2D6" stroke="transparent" stroke-width="4"></rect><text x="174" y="463" fill="#b2bec3" font-size="44.5">YvA</text></g><g id="C5"><rect x="265" y="404" width="108" height="89" fill="#b2bec3" stroke="#636e72" stroke-width="4"></rect><text x="319" y="463" fill="#636e72" font-size="44.5">x</text></g><g id="D5"><rect x="385" y="404" width="108" height="89" fill="#b2bec3" stroke="#636e72" stroke-width="4"></rect></g><g id="E5"><rect x="505" y="404" width="108" height="89" fill="#b2bec3" stroke="#636e72" stroke-width="4"></rect><text x="559" y="463" fill="#636e72" font-size="44.5">x</text></g><g id="F5"><rect x="625" y="404" width="108" height="89" fill="#b2bec3" stroke="#636e72" stroke-width="4"></rect><text x="679" y="463" fill="#636e72" font-size="44.5">x</text></g><g id="G5"><rect x="745" y="404" width="216" height="89" fill="#636e72" stroke="#636e72" stroke-width="4"></rect><text x="853" y="463" fill="#ffffff" font-size="44.5">OK</text></g><g id="B6"><rect x="95" y="505" width="158" height="89" fill="#C9D2D6" stroke="transparent" stroke-width="4"></rect><text x="174" y="564" fill="#b2bec3" font-size="44.5">EY</text></g><g id="C6"><rect x="265" y="505" width="108" height="89" fill="#b2bec3" stroke="#636e72" stroke-width="4"></rect><text x="319" y="564" fill="#636e72" font-size="44.5">x</text></g><g id="D6"><rect x="385" y="505" width="108" height="89" fill="#b2bec3" stroke="#636e72" stroke-width="4"></rect><text x="439" y="564" fill="#636e72" font-size="44.5">x</text></g><g id="E6"><rect x="505" y="505" width="108" height="89" fill="#b2bec3" stroke="#636e72" stroke-width="4"></rect></g><g id="F6"><rect x="625" y="505" width="108" height="89" fill="#b2bec3" stroke="#636e72" stroke-width="4"></rect><text x="679" y="564" fill="#636e72" font-size="44.5">x</text></g><g id="G6"><rect x="745" y="505" width="216" height="89" fill="#636e72" stroke="#636e72" stroke-width="4"></rect><text x="853" y="564" fill="#ffffff" font-size="44.5">OK</text></g><g id="A7"><circle cx="41.5" cy="650.5" r="35.6" fill="#ffeaa7" stroke="#636e72" stroke-width="4"></circle><text x="41" y="665" fill="#636e72" font-size="44.5">1</text></g><g id="B7"><rect x="95" y="606" width="158" height="89" fill="#C9D2D6" stroke="transparent" stroke-width="4"></rect><text x="174" y="665" fill="#b2bec3" font-size="44.5">MvB</text></g><g id="C7"><rect x="265" y="606" width="108" height="89" fill="#ffeaa7" stroke="#636e72" stroke-width="4"></rect><text x="319" y="665" fill="#636e72" font-size="44.5">x</text></g><g id="D7"><rect x="385" y="606" width="108" height="89" fill="#ffeaa7" stroke="#636e72" stroke-width="4"></rect><text x="439" y="665" fill="#636e72" font-size="44.5">x</text></g><g id="E7"><rect x="505" y="606" width="108" height="89" fill="#ffeaa7" stroke="#636e72" stroke-width="4"></rect></g><g id="F7"><rect x="625" y="606" width="108" height="89" fill="#ffeaa7" stroke="#636e72" stroke-width="4"></rect></g><g id="G7"><rect x="745" y="606" width="216" height="89" fill="#2d3436" stroke="#2d3436" stroke-width="4"></rect><text x="853" y="665" fill="#ffffff" font-size="44.5">Strafwerk</text></g><g id="B8"><rect x="95" y="707" width="158" height="89" fill="#C9D2D6" stroke="transparent" stroke-width="4"></rect><text x="174" y="766" fill="#b2bec3" font-size="44.5">DvW</text></g><g id="C8"><rect x="265" y="707" width="108" height="89" fill="#b2bec3" stroke="#636e72" stroke-width="4"></rect></g><g id="D8"><rect x="385" y="707" width="108" height="89" fill="#b2bec3" stroke="#636e72" stroke-width="4"></rect><text x="439" y="766" fill="#636e72" font-size="44.5">x</text></g><g id="E8"><rect x="505" y="707" width="108" height="89" fill="#b2bec3" stroke="#636e72" stroke-width="4"></rect></g><g id="F8"><rect x="625" y="707" width="108" height="89" fill="#b2bec3" stroke="#636e72" stroke-width="4"></rect></g><g id="G8"><rect x="745" y="707" width="216" height="89" fill="#636e72" stroke="#636e72" stroke-width="4"></rect><text x="853" y="766" fill="#ffffff" font-size="44.5">Strafwerk</text></g><g id="B9"><rect x="95" y="808" width="158" height="89" fill="#C9D2D6" stroke="transparent" stroke-width="4"></rect><text x="174" y="867" fill="#b2bec3" font-size="44.5">FM</text></g><g id="C9"><rect x="265" y="808" width="108" height="89" fill="#b2bec3" stroke="#636e72" stroke-width="4"></rect><text x="319" y="867" fill="#636e72" font-size="44.5">x</text></g><g id="D9"><rect x="385" y="808" width="108" height="89" fill="#b2bec3" stroke="#636e72" stroke-width="4"></rect><text x="439" y="867" fill="#636e72" font-size="44.5">x</text></g><g id="E9"><rect x="505" y="808" width="108" height="89" fill="#b2bec3" stroke="#636e72" stroke-width="4"></rect><text x="559" y="867" fill="#636e72" font-size="44.5">x</text></g><g id="F9"><rect x="625" y="808" width="108" height="89" fill="#b2bec3" stroke="#636e72" stroke-width="4"></rect><text x="679" y="867" fill="#636e72" font-size="44.5">x</text></g><g id="G9"><rect x="745" y="808" width="216" height="89" fill="#636e72" stroke="#636e72" stroke-width="4"></rect><text x="853" y="867" fill="#ffffff" font-size="44.5">OK</text></g></g></svg>