<svg viewBox="0 0 2133 1200" style="background-color:#dfe6e9" title="ALS-functie-genest" alt="ALS-functie-genest" font-family="Sans,Arial" dy="0.25em" text-anchor="middle" xmlns="http://www.w3.org/2000/svg"><g><text x="2047" y="1128" fill="#b2bec3" font-weight="normal" font-size="24" text-anchor="end">door Tristan Bains</text></g><g><text x="2047" y="1092" fill="#b2bec3" font-weight="bold" font-size="36" text-anchor="end">Excel in een dag</text></g><g id="box" transform="translate(566.6666666666665 100.0)"><g id="B2"><circle cx="57.5" cy="145.5" r="35.6" fill="#ffeaa7" stroke="#636e72" stroke-width="4"></circle><text x="57" y="160" fill="#636e72" font-size="44.5">2</text></g><g id="C2"><rect x="115" y="101" width="183" height="89" fill="transparent" stroke="transparent" stroke-width="4"></rect><text x="206" y="160" fill="#636e72" font-size="44.5">Min</text></g><g id="D2"><rect x="310" y="101" width="137" height="89" fill="#ffeaa7" stroke="#636e72" stroke-width="4"></rect><text x="378" y="160" fill="#636e72" font-size="44.5">10</text></g><g id="B3"><circle cx="57.5" cy="246.5" r="35.6" fill="#74b9ff" stroke="#636e72" stroke-width="4"></circle><text x="57" y="261" fill="#636e72" font-size="44.5">3</text></g><g id="C3"><rect x="115" y="202" width="183" height="89" fill="transparent" stroke="transparent" stroke-width="4"></rect><text x="206" y="261" fill="#636e72" font-size="44.5">Max</text></g><g id="D3"><rect x="310" y="202" width="137" height="89" fill="#74b9ff" stroke="#636e72" stroke-width="4"></rect><text x="378" y="261" fill="#636e72" font-size="44.5">100</text></g><g id="C5"><rect x="115" y="404" width="183" height="89" fill="transparent" stroke="transparent" stroke-width="4"></rect><text x="206" y="463" fill="#b2bec3" font-size="44.5">Item</text></g><g id="D5"><rect x="310" y="404" width="137" height="89" fill="transparent" stroke="transparent" stroke-width="4"></rect><text x="378" y="463" fill="#636e72" font-size="44.5">Prijs</text></g><g id="E5"><rect x="459" y="404" width="403" height="89" fill="transparent" stroke="transparent" stroke-width="4"></rect><text x="660" y="463" fill="#636e72" font-size="44.5">Oordeel</text></g><g id="C6"><rect x="115" y="505" width="183" height="89" fill="#C9D2D6" stroke="transparent" stroke-width="4"></rect><text x="206" y="564" fill="#b2bec3" font-size="44.5">Item A</text></g><g id="D6"><rect x="310" y="505" width="137" height="89" fill="#b2bec3" stroke="#636e72" stroke-width="4"></rect><text x="378" y="564" fill="#636e72" font-size="44.5">15</text></g><g id="E6"><rect x="459" y="505" width="403" height="89" fill="#636e72" stroke="#636e72" stroke-width="4"></rect><text x="660" y="564" fill="#ffffff" font-size="44.5">Goed</text></g><g id="C7"><rect x="115" y="606" width="183" height="89" fill="#C9D2D6" stroke="transparent" stroke-width="4"></rect><text x="206" y="665" fill="#b2bec3" font-size="44.5">Item B</text></g><g id="D7"><rect x="310" y="606" width="137" height="89" fill="#b2bec3" stroke="#636e72" stroke-width="4"></rect><text x="378" y="665" fill="#636e72" font-size="44.5">8</text></g><g id="E7"><rect x="459" y="606" width="403" height="89" fill="#636e72" stroke="#636e72" stroke-width="4"></rect><text x="660" y="665" fill="#ffffff" font-size="44.5">Te laag</text></g><g id="C8"><rect x="115" y="707" width="183" height="89" fill="#C9D2D6" stroke="transparent" stroke-width="4"></rect><text x="206" y="766" fill="#b2bec3" font-size="44.5">Item C</text></g><g id="D8"><rect x="310" y="707" width="137" height="89" fill="#b2bec3" stroke="#636e72" stroke-width="4"></rect><text x="378" y="766" fill="#636e72" font-size="44.5">75</text></g><g id="E8"><rect x="459" y="707" width="403" height="89" fill="#636e72" stroke="#636e72" stroke-width="4"></rect><text x="660" y="766" fill="#ffffff" font-size="44.5">Goed</text></g><g id="B9"><circle cx="57.5" cy="852.5" r="35.6" fill="#55efc4" stroke="#636e72" stroke-width="4"></circle><text x="57" y="867" fill="#636e72" font-size="44.5">1</text></g><g id="C9"><rect x="115" y="808" width="183" height="89" fill="#C9D2D6" stroke="transparent" stroke-width="4"></rect><text x="206" y="867" fill="#b2bec3" font-size="44.5">Item D</text></g><g id="D9"><rect x="310" y="808" width="137" height="89" fill="#55efc4" stroke="#636e72" stroke-width="4"></rect><text x="378" y="867" fill="#636e72" font-size="44.5">140</text></g><g id="E9"><rect x="459" y="808" width="403" height="89" fill="#2d3436" stroke="#2d3436" stroke-width="4"></rect><text x="660" y="867" fill="#ffffff" font-size="44.5">Te hoog</text></g><g id="E9_comment"><line x1="874" y1="852.5" x2="918.5" y2="852.5" stroke-width="4" stroke="#2d3436"></line><text x="874" y="867" fill="#2d3436" font-size="44.5" text-anchor="start" dx="55.625"><tspan x="874.0" y="867.0" dx="55.625">Meerdere ALS()</tspan><tspan x="874.0" y="920.4" dx="55.625">in elkaar genest</tspan></text></g><g id="C10"><rect x="115" y="909" width="183" height="89" fill="#C9D2D6" stroke="transparent" stroke-width="4"></rect><text x="206" y="968" fill="#b2bec3" font-size="44.5">Item E</text></g><g id="D10"><rect x="310" y="909" width="137" height="89" fill="#b2bec3" stroke="#636e72" stroke-width="4"></rect><text x="378" y="968" fill="#636e72" font-size="44.5">45</text></g><g id="E10"><rect x="459" y="909" width="403" height="89" fill="#636e72" stroke="#636e72" stroke-width="4"></rect><text x="660" y="968" fill="#ffffff" font-size="44.5">Goed</text></g></g></svg>