<svg viewBox="0 0 2133 1200" style="background-color:#dfe6e9" title="BEGINLETTERS-functie" alt="BEGINLETTERS-functie" font-family="Sans,Arial" dy="0.25em" text-anchor="middle" xmlns="http://www.w3.org/2000/svg"><g><text x="2047" y="1128" fill="#b2bec3" font-weight="normal" font-size="24" text-anchor="end">door Tristan Bains</text></g><g><text x="2047" y="1092" fill="#b2bec3" font-weight="bold" font-size="36" text-anchor="end">Excel in een dag</text></g><g id="box" transform="translate(566.6666666666665 100.0)"><g id="C3"><rect x="156" y="202" width="212" height="89" fill="transparent" stroke="transparent" stroke-width="4"></rect><text x="262" y="261" fill="#636e72" font-size="44.5">Origineel</text></g><g id="D3"><rect x="380" y="202" width="212" height="89" fill="transparent" stroke="transparent" stroke-width="4"></rect><text x="486" y="261" fill="#636e72" font-size="44.5">Aangepast</text></g><g id="C4"><rect x="156" y="303" width="212" height="89" fill="#b2bec3" stroke="#636e72" stroke-width="4"></rect><text x="262" y="362" fill="#636e72" font-size="44.5">Abc</text></g><g id="D4"><rect x="380" y="303" width="212" height="89" fill="#636e72" stroke="#636e72" stroke-width="4"></rect><text x="486" y="362" fill="#ffffff" font-size="44.5">Abc</text></g><g id="C5"><rect x="156" y="404" width="212" height="89" fill="#b2bec3" stroke="#636e72" stroke-width="4"></rect><text x="262" y="463" fill="#636e72" font-size="44.5">Abc DEF</text></g><g id="D5"><rect x="380" y="404" width="212" height="89" fill="#636e72" stroke="#636e72" stroke-width="4"></rect><text x="486" y="463" fill="#ffffff" font-size="44.5">Abc Def</text></g><g id="D5_comment"><line x1="604" y1="448.5" x2="648.5" y2="448.5" stroke-width="4" stroke="#b2bec3"></line><text x="604" y="463" fill="#b2bec3" font-size="44.5" text-anchor="start" dx="55.625"><tspan x="604.0" y="463.0" dx="55.625">Alleen eerste letter</tspan><tspan x="604.0" y="516.4" dx="55.625">per woord wordt</tspan><tspan x="604.0" y="569.8" dx="55.625">hoofdletter</tspan></text></g><g id="C6"><rect x="156" y="505" width="212" height="89" fill="#b2bec3" stroke="#636e72" stroke-width="4"></rect><text x="262" y="564" fill="#636e72" font-size="44.5">abC deF</text></g><g id="D6"><rect x="380" y="505" width="212" height="89" fill="#636e72" stroke="#636e72" stroke-width="4"></rect><text x="486" y="564" fill="#ffffff" font-size="44.5">Abc Def</text></g><g id="B7"><circle cx="78.0" cy="650.5" r="35.6" fill="#ffeaa7" stroke="#636e72" stroke-width="4"></circle><text x="78" y="665" fill="#636e72" font-size="44.5">1</text></g><g id="C7"><rect x="156" y="606" width="212" height="89" fill="#ffeaa7" stroke="#636e72" stroke-width="4"></rect><text x="262" y="665" fill="#636e72" font-size="44.5">ab cd</text></g><g id="D7"><rect x="380" y="606" width="212" height="89" fill="#2d3436" stroke="#2d3436" stroke-width="4"></rect><text x="486" y="665" fill="#ffffff" font-size="44.5">Ab Cd</text></g><g id="D7_comment"><line x1="604" y1="650.5" x2="648.5" y2="650.5" stroke-width="4" stroke="#2d3436"></line><text x="604" y="665" fill="#2d3436" font-size="44.5" text-anchor="start" dx="55.625"><tspan x="604.0" y="665.0" dx="55.625">BEGINLETTERS()</tspan><tspan x="604.0" y="718.4" dx="55.625">functie</tspan></text></g><g id="C8"><rect x="156" y="707" width="212" height="89" fill="#b2bec3" stroke="#636e72" stroke-width="4"></rect><text x="262" y="766" fill="#636e72" font-size="44.5">ABC</text></g><g id="D8"><rect x="380" y="707" width="212" height="89" fill="#636e72" stroke="#636e72" stroke-width="4"></rect><text x="486" y="766" fill="#ffffff" font-size="44.5">Abc</text></g><g id="C9"><rect x="156" y="808" width="212" height="89" fill="#b2bec3" stroke="#636e72" stroke-width="4"></rect><text x="262" y="867" fill="#636e72" font-size="44.5">ABC de</text></g><g id="D9"><rect x="380" y="808" width="212" height="89" fill="#636e72" stroke="#636e72" stroke-width="4"></rect><text x="486" y="867" fill="#ffffff" font-size="44.5">Abc De</text></g></g></svg>