<svg viewBox="0 0 2133 1200" style="background-color:#dfe6e9" title="Eerste-letter-van-tekst-naar-hoofdletter-HOOFDLETTERS-LINKS-DEEL-LENGTE" alt="Eerste-letter-van-tekst-naar-hoofdletter-HOOFDLETTERS-LINKS-DEEL-LENGTE" font-family="Sans,Arial" dy="0.25em" text-anchor="middle" xmlns="http://www.w3.org/2000/svg"><g><text x="2047" y="1128" fill="#b2bec3" font-weight="normal" font-size="24" text-anchor="end">door Tristan Bains</text></g><g><text x="2047" y="1092" fill="#b2bec3" font-weight="bold" font-size="36" text-anchor="end">Excel in een dag</text></g><g id="box" transform="translate(566.6666666666665 100.0)"><g id="C2"><rect x="124" y="101" width="320" height="89" fill="transparent" stroke="transparent" stroke-width="4"></rect><text x="284" y="160" fill="#636e72" font-size="44.5">Origineel</text></g><g id="D2"><rect x="456" y="101" width="320" height="89" fill="transparent" stroke="transparent" stroke-width="4"></rect><text x="616" y="160" fill="#636e72" font-size="44.5">Na formule</text></g><g id="C3"><rect x="124" y="202" width="320" height="89" fill="#b2bec3" stroke="#636e72" stroke-width="4"></rect><text x="284" y="261" fill="#636e72" font-size="44.5">Amsterdam</text></g><g id="D3"><rect x="456" y="202" width="320" height="89" fill="#636e72" stroke="#636e72" stroke-width="4"></rect><text x="616" y="261" fill="#ffffff" font-size="44.5">Amsterdam</text></g><g id="C4"><rect x="124" y="303" width="320" height="89" fill="#b2bec3" stroke="#636e72" stroke-width="4"></rect><text x="284" y="362" fill="#636e72" font-size="44.5">amsterdam</text></g><g id="D4"><rect x="456" y="303" width="320" height="89" fill="#636e72" stroke="#636e72" stroke-width="4"></rect><text x="616" y="362" fill="#ffffff" font-size="44.5">Amsterdam</text></g><g id="B5"><circle cx="62.0" cy="448.5" r="35.6" fill="#ffeaa7" stroke="#636e72" stroke-width="4"></circle><text x="62" y="463" fill="#636e72" font-size="44.5">1</text></g><g id="C5"><rect x="124" y="404" width="320" height="89" fill="#ffeaa7" stroke="#636e72" stroke-width="4"></rect><text x="284" y="463" fill="#636e72" font-size="44.5">kleine letters</text></g><g id="D5"><rect x="456" y="404" width="320" height="89" fill="#2d3436" stroke="#2d3436" stroke-width="4"></rect><text x="616" y="463" fill="#ffffff" font-size="44.5">Kleine letters</text></g><g id="D5_comment"><line x1="788" y1="448.5" x2="832.5" y2="448.5" stroke-width="4" stroke="#2d3436"></line><text x="788" y="463" fill="#2d3436" font-size="44.5" text-anchor="start" dx="55.625"><tspan x="788.0" y="463.0" dx="55.625">Formule met</tspan><tspan x="788.0" y="516.4" dx="55.625">HOOFDLETTERS,</tspan><tspan x="788.0" y="569.8" dx="55.625">LINKS, DEEL</tspan><tspan x="788.0" y="623.2" dx="55.625">en LENGTE</tspan></text></g><g id="C6"><rect x="124" y="505" width="320" height="89" fill="#b2bec3" stroke="#636e72" stroke-width="4"></rect><text x="284" y="564" fill="#636e72" font-size="44.5">123 en woord</text></g><g id="D6"><rect x="456" y="505" width="320" height="89" fill="#636e72" stroke="#636e72" stroke-width="4"></rect><text x="616" y="564" fill="#ffffff" font-size="44.5">123 en woord</text></g><g id="C7"><rect x="124" y="606" width="320" height="89" fill="#b2bec3" stroke="#636e72" stroke-width="4"></rect><text x="284" y="665" fill="#636e72" font-size="44.5">ABC</text></g><g id="D7"><rect x="456" y="606" width="320" height="89" fill="#636e72" stroke="#636e72" stroke-width="4"></rect><text x="616" y="665" fill="#ffffff" font-size="44.5">ABC</text></g></g></svg>