<svg viewBox="0 0 2133 1200" style="background-color:#dfe6e9" title="Kijken_of_cel_woord_bevat" alt="Kijken_of_cel_woord_bevat" font-family="Sans,Arial" dy="0.25em" text-anchor="middle" xmlns="http://www.w3.org/2000/svg"><g id="box" transform="translate(566.6666666666665 100.0)"><g id="B1"><circle cx="52.5" cy="44.5" r="35.6" fill="#74b9ff" stroke="#636e72" stroke-width="4"></circle><text x="52" y="59" fill="#636e72" font-size="44.5">1</text></g><g id="C1"><rect x="105" y="0" width="138" height="89" fill="#74b9ff" stroke="#636e72" stroke-width="4"></rect><text x="174" y="59" fill="#636e72" font-size="44.5">Sr.</text></g><g id="C1_comment"><line x1="255" y1="44.5" x2="299.5" y2="44.5" stroke-width="4" stroke="#e17055"></line><text x="255" y="59" fill="#e17055" font-size="44.5" text-anchor="start" dx="55.625"><tspan x="255.0" y="59.0" dx="55.625">Zoek naar "Sr."</tspan><tspan x="255.0" y="112.4" dx="55.625">(NIET hoofdlettergevoelig)</tspan></text></g><g id="C3"><rect x="105" y="202" width="138" height="89" fill="transparent" stroke="transparent" stroke-width="4"></rect><text x="174" y="261" fill="#b2bec3" font-size="44.5">Naam</text></g><g id="D3"><rect x="255" y="202" width="195" height="89" fill="transparent" stroke="transparent" stroke-width="4"></rect><text x="352" y="261" fill="#636e72" font-size="44.5">Functie</text></g><g id="E3"><rect x="462" y="202" width="195" height="89" fill="transparent" stroke="transparent" stroke-width="4"></rect><text x="559" y="261" fill="#636e72" font-size="44.5">"Sr." of "sr."</text></g><g id="C4"><rect x="105" y="303" width="138" height="89" fill="#C9D2D6" stroke="transparent" stroke-width="4"></rect><text x="174" y="362" fill="#b2bec3" font-size="44.5">MS</text></g><g id="D4"><rect x="255" y="303" width="195" height="89" fill="#b2bec3" stroke="#636e72" stroke-width="4"></rect><text x="352" y="362" fill="#636e72" font-size="44.5">Jr. xyz</text></g><g id="E4"><rect x="462" y="303" width="195" height="89" fill="#636e72" stroke="#636e72" stroke-width="4"></rect><text x="559" y="362" fill="#ffffff" font-size="44.5">Nee</text></g><g id="C5"><rect x="105" y="404" width="138" height="89" fill="#C9D2D6" stroke="transparent" stroke-width="4"></rect><text x="174" y="463" fill="#b2bec3" font-size="44.5">LvG</text></g><g id="D5"><rect x="255" y="404" width="195" height="89" fill="#b2bec3" stroke="#636e72" stroke-width="4"></rect><text x="352" y="463" fill="#636e72" font-size="44.5">Sr. abc</text></g><g id="E5"><rect x="462" y="404" width="195" height="89" fill="#636e72" stroke="#636e72" stroke-width="4"></rect><text x="559" y="463" fill="#ffffff" font-size="44.5">Ja</text></g><g id="B6"><circle cx="52.5" cy="549.5" r="35.6" fill="#ffeaa7" stroke="#636e72" stroke-width="4"></circle><text x="52" y="564" fill="#636e72" font-size="44.5">2</text></g><g id="C6"><rect x="105" y="505" width="138" height="89" fill="#C9D2D6" stroke="transparent" stroke-width="4"></rect><text x="174" y="564" fill="#b2bec3" font-size="44.5">EtH</text></g><g id="D6"><rect x="255" y="505" width="195" height="89" fill="#ffeaa7" stroke="#636e72" stroke-width="4"></rect><text x="352" y="564" fill="#636e72" font-size="44.5">Sr. xyz</text></g><g id="E6"><rect x="462" y="505" width="195" height="89" fill="#2d3436" stroke="#2d3436" stroke-width="4"></rect><text x="559" y="564" fill="#ffffff" font-size="44.5">Ja</text></g><g id="E6_comment"><line x1="669" y1="549.5" x2="713.5" y2="549.5" stroke-width="4" stroke="#2d3436"></line><text x="669" y="564" fill="#2d3436" font-size="44.5" text-anchor="start" dx="55.625"><tspan x="669.0" y="564.0" dx="55.625">Formule met</tspan><tspan x="669.0" y="617.4" dx="55.625">ALS, ISGETAL</tspan><tspan x="669.0" y="670.8" dx="55.625">en VIND.SPEC</tspan></text></g><g id="C7"><rect x="105" y="606" width="138" height="89" fill="#C9D2D6" stroke="transparent" stroke-width="4"></rect><text x="174" y="665" fill="#b2bec3" font-size="44.5">AS</text></g><g id="D7"><rect x="255" y="606" width="195" height="89" fill="#b2bec3" stroke="#636e72" stroke-width="4"></rect><text x="352" y="665" fill="#636e72" font-size="44.5">Jr. abc</text></g><g id="E7"><rect x="462" y="606" width="195" height="89" fill="#636e72" stroke="#636e72" stroke-width="4"></rect><text x="559" y="665" fill="#ffffff" font-size="44.5">Nee</text></g><g id="C8"><rect x="105" y="707" width="138" height="89" fill="#C9D2D6" stroke="transparent" stroke-width="4"></rect><text x="174" y="766" fill="#b2bec3" font-size="44.5">JvhS</text></g><g id="D8"><rect x="255" y="707" width="195" height="89" fill="#b2bec3" stroke="#636e72" stroke-width="4"></rect><text x="352" y="766" fill="#636e72" font-size="44.5">def jr.</text></g><g id="E8"><rect x="462" y="707" width="195" height="89" fill="#636e72" stroke="#636e72" stroke-width="4"></rect><text x="559" y="766" fill="#ffffff" font-size="44.5">Nee</text></g><g id="C9"><rect x="105" y="808" width="138" height="89" fill="#C9D2D6" stroke="transparent" stroke-width="4"></rect><text x="174" y="867" fill="#b2bec3" font-size="44.5">PB</text></g><g id="D9"><rect x="255" y="808" width="195" height="89" fill="#b2bec3" stroke="#636e72" stroke-width="4"></rect><text x="352" y="867" fill="#636e72" font-size="44.5">def sr.</text></g><g id="E9"><rect x="462" y="808" width="195" height="89" fill="#636e72" stroke="#636e72" stroke-width="4"></rect><text x="559" y="867" fill="#ffffff" font-size="44.5">Ja</text></g><g id="E9_comment"><line x1="669" y1="852.5" x2="713.5" y2="852.5" stroke-width="4" stroke="#b2bec3"></line><text x="669" y="867" fill="#b2bec3" font-size="44.5" text-anchor="start" dx="55.625"><tspan x="669.0" y="867.0" dx="55.625">Formule is NIET</tspan><tspan x="669.0" y="920.4" dx="55.625">hoofdlettergevoelig</tspan><tspan x="669.0" y="973.8" dx="55.625">("sr." ook meegenomen)</tspan></text></g><g id="C10"><rect x="105" y="909" width="138" height="89" fill="#C9D2D6" stroke="transparent" stroke-width="4"></rect><text x="174" y="968" fill="#b2bec3" font-size="44.5">EvdS</text></g><g id="D10"><rect x="255" y="909" width="195" height="89" fill="#b2bec3" stroke="#636e72" stroke-width="4"></rect><text x="352" y="968" fill="#636e72" font-size="44.5">CEO</text></g><g id="E10"><rect x="462" y="909" width="195" height="89" fill="#636e72" stroke="#636e72" stroke-width="4"></rect><text x="559" y="968" fill="#ffffff" font-size="44.5">Nee</text></g></g></svg>