<svg viewBox="0 0 2133 1200" style="background-color:#dfe6e9" title="REEKS-functie" alt="REEKS-functie" font-family="Sans,Arial" dy="0.25em" text-anchor="middle" xmlns="http://www.w3.org/2000/svg"><g id="box" transform="translate(566.6666666666665 100.0)"><g id="C2_comment"><line x1="339" y1="145.5" x2="294.5" y2="145.5" stroke-width="4" stroke="#e17055"></line><text x="339" y="160" fill="#e17055" font-size="44.5" text-anchor="end" dx="-55.625">Rijen</text></g><g id="C2"><rect x="351" y="101" width="112" height="89" fill="#55efc4" stroke="#636e72" stroke-width="4"></rect><text x="407" y="160" fill="#636e72" font-size="44.5">3</text></g><g id="D2"><circle cx="531.0" cy="145.5" r="35.6" fill="#55efc4" stroke="#636e72" stroke-width="4"></circle><text x="531" y="160" fill="#636e72" font-size="44.5">1</text></g><g id="C3_comment"><line x1="339" y1="246.5" x2="294.5" y2="246.5" stroke-width="4" stroke="#e17055"></line><text x="339" y="261" fill="#e17055" font-size="44.5" text-anchor="end" dx="-55.625">Kolommen</text></g><g id="C3"><rect x="351" y="202" width="112" height="89" fill="#ffeaa7" stroke="#636e72" stroke-width="4"></rect><text x="407" y="261" fill="#636e72" font-size="44.5">5</text></g><g id="D3"><circle cx="531.0" cy="246.5" r="35.6" fill="#ffeaa7" stroke="#636e72" stroke-width="4"></circle><text x="531" y="261" fill="#636e72" font-size="44.5">2</text></g><g id="C4_comment"><line x1="339" y1="347.5" x2="294.5" y2="347.5" stroke-width="4" stroke="#e17055"></line><text x="339" y="362" fill="#e17055" font-size="44.5" text-anchor="end" dx="-55.625">Begin vanaf</text></g><g id="C4"><rect x="351" y="303" width="112" height="89" fill="#74b9ff" stroke="#636e72" stroke-width="4"></rect><text x="407" y="362" fill="#636e72" font-size="44.5">100</text></g><g id="D4"><circle cx="531.0" cy="347.5" r="35.6" fill="#74b9ff" stroke="#636e72" stroke-width="4"></circle><text x="531" y="362" fill="#636e72" font-size="44.5">3</text></g><g id="C5_comment"><line x1="339" y1="448.5" x2="294.5" y2="448.5" stroke-width="4" stroke="#e17055"></line><text x="339" y="463" fill="#e17055" font-size="44.5" text-anchor="end" dx="-55.625">Stap</text></g><g id="C5"><rect x="351" y="404" width="112" height="89" fill="#ff7675" stroke="#636e72" stroke-width="4"></rect><text x="407" y="463" fill="#636e72" font-size="44.5">15</text></g><g id="D5"><circle cx="531.0" cy="448.5" r="35.6" fill="#ff7675" stroke="#636e72" stroke-width="4"></circle><text x="531" y="463" fill="#636e72" font-size="44.5">4</text></g><g id="F7_comment"><line x1="779.0" y1="594" x2="779.0" y2="549.5" stroke-width="4" stroke="#e17055"></line><text x="779.0" y="534.7" fill="#e17055" font-size="44.5"><tspan x="779.0" y="427.90000000000003" dx="">Witte cellen</tspan><tspan x="779.0" y="481.30000000000007" dx="">worden door</tspan><tspan x="779.0" y="534.7" dx="">REEKS gevuld</tspan></text></g><g id="C7_comment"><line x1="339" y1="650.5" x2="294.5" y2="650.5" stroke-width="4" stroke="#2d3436"></line><text x="339" y="665" fill="#2d3436" font-size="44.5" text-anchor="end" dx="-55.625"><tspan x="339.0" y="665.0" dx="-55.625">REEKS()</tspan><tspan x="339.0" y="718.4" dx="-55.625">functie</tspan></text></g><g id="C7"><rect x="351" y="606" width="112" height="89" fill="#2d3436" stroke="#2d3436" stroke-width="4"></rect><text x="407" y="665" fill="#ffffff" font-size="44.5">100</text></g><g id="D7"><rect x="475" y="606" width="112" height="89" fill="#ffffff" stroke="#636e72" stroke-width="4"></rect><text x="531" y="665" fill="#636e72" font-size="44.5">115</text></g><g id="E7"><rect x="599" y="606" width="112" height="89" fill="#ffffff" stroke="#636e72" stroke-width="4"></rect><text x="655" y="665" fill="#636e72" font-size="44.5">130</text></g><g id="F7"><rect x="723" y="606" width="112" height="89" fill="#ffffff" stroke="#636e72" stroke-width="4"></rect><text x="779" y="665" fill="#636e72" font-size="44.5">145</text></g><g id="G7"><rect x="847" y="606" width="112" height="89" fill="#ffffff" stroke="#636e72" stroke-width="4"></rect><text x="903" y="665" fill="#636e72" font-size="44.5">160</text></g><g id="C8"><rect x="351" y="707" width="112" height="89" fill="#ffffff" stroke="#636e72" stroke-width="4"></rect><text x="407" y="766" fill="#636e72" font-size="44.5">175</text></g><g id="D8"><rect x="475" y="707" width="112" height="89" fill="#ffffff" stroke="#636e72" stroke-width="4"></rect><text x="531" y="766" fill="#636e72" font-size="44.5">190</text></g><g id="E8"><rect x="599" y="707" width="112" height="89" fill="#ffffff" stroke="#636e72" stroke-width="4"></rect><text x="655" y="766" fill="#636e72" font-size="44.5">205</text></g><g id="F8"><rect x="723" y="707" width="112" height="89" fill="#ffffff" stroke="#636e72" stroke-width="4"></rect><text x="779" y="766" fill="#636e72" font-size="44.5">220</text></g><g id="G8"><rect x="847" y="707" width="112" height="89" fill="#ffffff" stroke="#636e72" stroke-width="4"></rect><text x="903" y="766" fill="#636e72" font-size="44.5">235</text></g><g id="C9"><rect x="351" y="808" width="112" height="89" fill="#ffffff" stroke="#636e72" stroke-width="4"></rect><text x="407" y="867" fill="#636e72" font-size="44.5">250</text></g><g id="D9"><rect x="475" y="808" width="112" height="89" fill="#ffffff" stroke="#636e72" stroke-width="4"></rect><text x="531" y="867" fill="#636e72" font-size="44.5">265</text></g><g id="E9"><rect x="599" y="808" width="112" height="89" fill="#ffffff" stroke="#636e72" stroke-width="4"></rect><text x="655" y="867" fill="#636e72" font-size="44.5">280</text></g><g id="F9"><rect x="723" y="808" width="112" height="89" fill="#ffffff" stroke="#636e72" stroke-width="4"></rect><text x="779" y="867" fill="#636e72" font-size="44.5">295</text></g><g id="G9"><rect x="847" y="808" width="112" height="89" fill="#ffffff" stroke="#636e72" stroke-width="4"></rect><text x="903" y="867" fill="#636e72" font-size="44.5">310</text></g></g></svg>