<svg viewBox="0 0 2133 1200" style="background-color:#dfe6e9" title="SOMMEN.ALS-functie" alt="SOMMEN.ALS-functie" font-family="Sans,Arial" dy="0.25em" text-anchor="middle" xmlns="http://www.w3.org/2000/svg"><g><text x="2047" y="1128" fill="#b2bec3" font-weight="normal" font-size="24" text-anchor="end">door Tristan Bains</text></g><g><text x="2047" y="1092" fill="#b2bec3" font-weight="bold" font-size="36" text-anchor="end">Excel in een dag</text></g><g id="box" transform="translate(566.6666666666665 100.0)"><g id="D2"><circle cx="236.5" cy="145.5" r="35.6" fill="#ffeaa7" stroke="#636e72" stroke-width="4"></circle><text x="236" y="160" fill="#636e72" font-size="44.5">1</text></g><g id="E2"><circle cx="420.5" cy="145.5" r="35.6" fill="#74b9ff" stroke="#636e72" stroke-width="4"></circle><text x="420" y="160" fill="#636e72" font-size="44.5">2</text></g><g id="G2"><circle cx="716.0" cy="145.5" r="35.6" fill="#55efc4" stroke="#636e72" stroke-width="4"></circle><text x="716" y="160" fill="#636e72" font-size="44.5">3</text></g><g id="C3"><rect x="24" y="202" width="125" height="89" fill="transparent" stroke="transparent" stroke-width="4"></rect><text x="86" y="261" fill="#b2bec3" font-size="44.5">Klant</text></g><g id="D3"><rect x="161" y="202" width="151" height="89" fill="transparent" stroke="transparent" stroke-width="4"></rect><text x="236" y="261" fill="#636e72" font-size="44.5">Bedrag</text></g><g id="E3"><rect x="324" y="202" width="193" height="89" fill="transparent" stroke="transparent" stroke-width="4"></rect><text x="420" y="261" fill="#636e72" font-size="44.5">Status</text></g><g id="G3"><rect x="624" y="202" width="184" height="89" fill="transparent" stroke="transparent" stroke-width="4"></rect><text x="716" y="261" fill="#636e72" font-size="44.5">Status</text></g><g id="H3"><rect x="820" y="202" width="151" height="89" fill="transparent" stroke="transparent" stroke-width="4"></rect><text x="895" y="261" fill="#636e72" font-size="44.5">Bedrag</text></g><g id="C4"><rect x="24" y="303" width="125" height="89" fill="#C9D2D6" stroke="transparent" stroke-width="4"></rect><text x="86" y="362" fill="#b2bec3" font-size="44.5">MA</text></g><g id="D4"><rect x="161" y="303" width="151" height="89" fill="#ffeaa7" stroke="#636e72" stroke-width="4"></rect><text x="236" y="362" fill="#636e72" font-size="44.5">300</text></g><g id="E4"><rect x="324" y="303" width="193" height="89" fill="#74b9ff" stroke="#636e72" stroke-width="4"></rect><text x="420" y="362" fill="#636e72" font-size="44.5">Betaald</text></g><g id="G4"><rect x="624" y="303" width="184" height="89" fill="#C9D2D6" stroke="transparent" stroke-width="4"></rect><text x="716" y="362" fill="#b2bec3" font-size="44.5">Betaald</text></g><g id="H4"><rect x="820" y="303" width="151" height="89" fill="#C9D2D6" stroke="transparent" stroke-width="4"></rect><text x="895" y="362" fill="#b2bec3" font-size="44.5">850</text></g><g id="C5"><rect x="24" y="404" width="125" height="89" fill="#C9D2D6" stroke="transparent" stroke-width="4"></rect><text x="86" y="463" fill="#b2bec3" font-size="44.5">PK</text></g><g id="D5"><rect x="161" y="404" width="151" height="89" fill="#ffeaa7" stroke="#636e72" stroke-width="4"></rect><text x="236" y="463" fill="#636e72" font-size="44.5">200</text></g><g id="E5"><rect x="324" y="404" width="193" height="89" fill="#74b9ff" stroke="#636e72" stroke-width="4"></rect><text x="420" y="463" fill="#636e72" font-size="44.5">Betaald</text></g><g id="G5"><rect x="624" y="404" width="184" height="89" fill="#55efc4" stroke="#636e72" stroke-width="4"></rect><text x="716" y="463" fill="#636e72" font-size="44.5">Offerte</text></g><g id="H5"><rect x="820" y="404" width="151" height="89" fill="#2d3436" stroke="#2d3436" stroke-width="4"></rect><text x="895" y="463" fill="#ffffff" font-size="44.5">150</text></g><g id="C6"><rect x="24" y="505" width="125" height="89" fill="#C9D2D6" stroke="transparent" stroke-width="4"></rect><text x="86" y="564" fill="#b2bec3" font-size="44.5">HvdD</text></g><g id="D6"><rect x="161" y="505" width="151" height="89" fill="#ffeaa7" stroke="#636e72" stroke-width="4"></rect><text x="236" y="564" fill="#636e72" font-size="44.5">100</text></g><g id="E6"><rect x="324" y="505" width="193" height="89" fill="#74b9ff" stroke="#636e72" stroke-width="4"></rect><text x="420" y="564" fill="#636e72" font-size="44.5">Betaald</text></g><g id="H5_comment"><line x1="895.5" y1="505" x2="895.5" y2="549.5" stroke-width="4" stroke="#2d3436"></line><text x="895.5" y="594.0" fill="#2d3436" font-size="44.5"><tspan x="895.5" y="594.0" dx="">SOMMEN.ALS()</tspan><tspan x="895.5" y="647.4" dx="">functie</tspan></text></g><g id="C7"><rect x="24" y="606" width="125" height="89" fill="#C9D2D6" stroke="transparent" stroke-width="4"></rect><text x="86" y="665" fill="#b2bec3" font-size="44.5">GvW</text></g><g id="D7"><rect x="161" y="606" width="151" height="89" fill="#ffeaa7" stroke="#636e72" stroke-width="4"></rect><text x="236" y="665" fill="#636e72" font-size="44.5">150</text></g><g id="E7"><rect x="324" y="606" width="193" height="89" fill="#74b9ff" stroke="#636e72" stroke-width="4"></rect><text x="420" y="665" fill="#636e72" font-size="44.5">Betaald</text></g><g id="C8"><rect x="24" y="707" width="125" height="89" fill="#C9D2D6" stroke="transparent" stroke-width="4"></rect><text x="86" y="766" fill="#b2bec3" font-size="44.5">KJ</text></g><g id="D8"><rect x="161" y="707" width="151" height="89" fill="#fdcb6e" stroke="#636e72" stroke-width="4"></rect><text x="236" y="766" fill="#636e72" font-size="44.5">100</text></g><g id="E8"><rect x="324" y="707" width="193" height="89" fill="#0984e3" stroke="#636e72" stroke-width="4"></rect><text x="420" y="766" fill="#ffffff" font-size="44.5">Offerte</text></g><g id="E8_comment"><line x1="529" y1="751.5" x2="573.5" y2="751.5" stroke-width="4" stroke="#e17055"></line><text x="529" y="766" fill="#e17055" font-size="44.5" text-anchor="start" dx="55.625"><tspan x="529.0" y="766.0" dx="55.625">Match!</tspan><tspan x="529.0" y="819.4" dx="55.625">Voeg 100 toe</tspan></text></g><g id="C9"><rect x="24" y="808" width="125" height="89" fill="#C9D2D6" stroke="transparent" stroke-width="4"></rect><text x="86" y="867" fill="#b2bec3" font-size="44.5">GV</text></g><g id="D9"><rect x="161" y="808" width="151" height="89" fill="#ffeaa7" stroke="#636e72" stroke-width="4"></rect><text x="236" y="867" fill="#636e72" font-size="44.5">100</text></g><g id="E9"><rect x="324" y="808" width="193" height="89" fill="#74b9ff" stroke="#636e72" stroke-width="4"></rect><text x="420" y="867" fill="#636e72" font-size="44.5">Betaald</text></g><g id="C10"><rect x="24" y="909" width="125" height="89" fill="#C9D2D6" stroke="transparent" stroke-width="4"></rect><text x="86" y="968" fill="#b2bec3" font-size="44.5">HK</text></g><g id="D10"><rect x="161" y="909" width="151" height="89" fill="#fdcb6e" stroke="#636e72" stroke-width="4"></rect><text x="236" y="968" fill="#636e72" font-size="44.5">50</text></g><g id="E10"><rect x="324" y="909" width="193" height="89" fill="#0984e3" stroke="#636e72" stroke-width="4"></rect><text x="420" y="968" fill="#ffffff" font-size="44.5">Offerte</text></g><g id="E10_comment"><line x1="529" y1="953.5" x2="573.5" y2="953.5" stroke-width="4" stroke="#e17055"></line><text x="529" y="968" fill="#e17055" font-size="44.5" text-anchor="start" dx="55.625"><tspan x="529.0" y="968.0" dx="55.625">Match!</tspan><tspan x="529.0" y="1021.4" dx="55.625">Voeg 50 toe</tspan></text></g></g></svg>