<svg viewBox="0 0 2133 1200" style="background-color:#dfe6e9" title="SORTEREN.OP-functie" alt="SORTEREN.OP-functie" font-family="Sans,Arial" dy="0.25em" text-anchor="middle" xmlns="http://www.w3.org/2000/svg"><g><text x="2047" y="1128" fill="#b2bec3" font-weight="normal" font-size="24" text-anchor="end">door Tristan Bains</text></g><g><text x="2047" y="1092" fill="#b2bec3" font-weight="bold" font-size="36" text-anchor="end">Excel in een dag</text></g><g id="box" transform="translate(566.6666666666665 100.0)"><g id="A1"><circle cx="59.5" cy="44.5" r="35.6" fill="#55efc4" stroke="#636e72" stroke-width="4"></circle><text x="59" y="59" fill="#636e72" font-size="44.5">3</text></g><g id="B1"><rect x="131" y="0" width="143" height="89" fill="#55efc4" stroke="#636e72" stroke-width="4"></rect><text x="202" y="59" fill="#636e72" font-size="44.5">-1</text></g><g id="B1_comment"><line x1="286" y1="44.5" x2="330.5" y2="44.5" stroke-width="4" stroke="#e17055"></line><text x="286" y="59" fill="#e17055" font-size="44.5" text-anchor="start" dx="55.625"><tspan x="286.0" y="59.0" dx="55.625">Sorteer aflopend</tspan><tspan x="286.0" y="112.4" dx="55.625">(-1 =aflopend, 1=oplopend)</tspan></text></g><g id="B3"><circle cx="202.5" cy="246.5" r="35.6" fill="#ffeaa7" stroke="#636e72" stroke-width="4"></circle><text x="202" y="261" fill="#636e72" font-size="44.5">1</text></g><g id="C3"><circle cx="341.5" cy="246.5" r="35.6" fill="#74b9ff" stroke="#636e72" stroke-width="4"></circle><text x="341" y="261" fill="#636e72" font-size="44.5">2</text></g><g id="B4"><rect x="131" y="303" width="143" height="89" fill="transparent" stroke="transparent" stroke-width="4"></rect><text x="202" y="362" fill="#636e72" font-size="44.5">Student</text></g><g id="C4"><rect x="286" y="303" width="111" height="89" fill="transparent" stroke="transparent" stroke-width="4"></rect><text x="341" y="362" fill="#636e72" font-size="44.5">Cijfer</text></g><g id="D4"><rect x="409" y="303" width="79" height="89" fill="transparent" stroke="transparent" stroke-width="4"></rect><text x="448" y="362" fill="#b2bec3" font-size="44.5">Afw.</text></g><g id="F4"><rect x="591" y="303" width="127" height="89" fill="transparent" stroke="transparent" stroke-width="4"></rect><text x="654" y="362" fill="#636e72" font-size="44.5">Student</text></g><g id="B5"><rect x="131" y="404" width="143" height="89" fill="#ffeaa7" stroke="#636e72" stroke-width="4"></rect><text x="202" y="463" fill="#636e72" font-size="44.5">MM</text></g><g id="C5"><rect x="286" y="404" width="111" height="89" fill="#74b9ff" stroke="#636e72" stroke-width="4"></rect><text x="341" y="463" fill="#636e72" font-size="44.5">8</text></g><g id="D5"><rect x="409" y="404" width="79" height="89" fill="#C9D2D6" stroke="transparent" stroke-width="4"></rect><text x="448" y="463" fill="#b2bec3" font-size="44.5">0</text></g><g id="F5"><rect x="591" y="404" width="127" height="89" fill="#2d3436" stroke="#2d3436" stroke-width="4"></rect><text x="654" y="463" fill="#ffffff" font-size="44.5">FvM</text></g><g id="F5_comment"><line x1="730" y1="448.5" x2="774.5" y2="448.5" stroke-width="4" stroke="#2d3436"></line><text x="730" y="463" fill="#2d3436" font-size="44.5" text-anchor="start" dx="55.625"><tspan x="730.0" y="463.0" dx="55.625">SORTEREN.OP()</tspan><tspan x="730.0" y="516.4" dx="55.625">functie</tspan></text></g><g id="B6"><rect x="131" y="505" width="143" height="89" fill="#ffeaa7" stroke="#636e72" stroke-width="4"></rect><text x="202" y="564" fill="#636e72" font-size="44.5">WG</text></g><g id="C6"><rect x="286" y="505" width="111" height="89" fill="#74b9ff" stroke="#636e72" stroke-width="4"></rect><text x="341" y="564" fill="#636e72" font-size="44.5">7</text></g><g id="D6"><rect x="409" y="505" width="79" height="89" fill="#C9D2D6" stroke="transparent" stroke-width="4"></rect><text x="448" y="564" fill="#b2bec3" font-size="44.5">0</text></g><g id="F6"><rect x="591" y="505" width="127" height="89" fill="#ffffff" stroke="#636e72" stroke-width="4"></rect><text x="654" y="564" fill="#636e72" font-size="44.5">MM</text></g><g id="B7"><rect x="131" y="606" width="143" height="89" fill="#ffeaa7" stroke="#636e72" stroke-width="4"></rect><text x="202" y="665" fill="#636e72" font-size="44.5">EvhG</text></g><g id="C7"><rect x="286" y="606" width="111" height="89" fill="#74b9ff" stroke="#636e72" stroke-width="4"></rect><text x="341" y="665" fill="#636e72" font-size="44.5">8</text></g><g id="D7"><rect x="409" y="606" width="79" height="89" fill="#C9D2D6" stroke="transparent" stroke-width="4"></rect><text x="448" y="665" fill="#b2bec3" font-size="44.5">2</text></g><g id="F7"><rect x="591" y="606" width="127" height="89" fill="#ffffff" stroke="#636e72" stroke-width="4"></rect><text x="654" y="665" fill="#636e72" font-size="44.5">EvhG</text></g><g id="B8"><rect x="131" y="707" width="143" height="89" fill="#ffeaa7" stroke="#636e72" stroke-width="4"></rect><text x="202" y="766" fill="#636e72" font-size="44.5">FvM</text></g><g id="C8"><rect x="286" y="707" width="111" height="89" fill="#74b9ff" stroke="#636e72" stroke-width="4"></rect><text x="341" y="766" fill="#636e72" font-size="44.5">9</text></g><g id="D8"><rect x="409" y="707" width="79" height="89" fill="#C9D2D6" stroke="transparent" stroke-width="4"></rect><text x="448" y="766" fill="#b2bec3" font-size="44.5">0</text></g><g id="F8"><rect x="591" y="707" width="127" height="89" fill="#ffffff" stroke="#636e72" stroke-width="4"></rect><text x="654" y="766" fill="#636e72" font-size="44.5">RY</text></g><g id="B9"><rect x="131" y="808" width="143" height="89" fill="#ffeaa7" stroke="#636e72" stroke-width="4"></rect><text x="202" y="867" fill="#636e72" font-size="44.5">RY</text></g><g id="C9"><rect x="286" y="808" width="111" height="89" fill="#74b9ff" stroke="#636e72" stroke-width="4"></rect><text x="341" y="867" fill="#636e72" font-size="44.5">8</text></g><g id="D9"><rect x="409" y="808" width="79" height="89" fill="#C9D2D6" stroke="transparent" stroke-width="4"></rect><text x="448" y="867" fill="#b2bec3" font-size="44.5">1</text></g><g id="F9"><rect x="591" y="808" width="127" height="89" fill="#ffffff" stroke="#636e72" stroke-width="4"></rect><text x="654" y="867" fill="#636e72" font-size="44.5">WG</text></g><g id="B10"><rect x="131" y="909" width="143" height="89" fill="#ffeaa7" stroke="#636e72" stroke-width="4"></rect><text x="202" y="968" fill="#636e72" font-size="44.5">UvD</text></g><g id="C10"><rect x="286" y="909" width="111" height="89" fill="#74b9ff" stroke="#636e72" stroke-width="4"></rect><text x="341" y="968" fill="#636e72" font-size="44.5">7</text></g><g id="D10"><rect x="409" y="909" width="79" height="89" fill="#C9D2D6" stroke="transparent" stroke-width="4"></rect><text x="448" y="968" fill="#b2bec3" font-size="44.5">3</text></g><g id="F10"><rect x="591" y="909" width="127" height="89" fill="#ffffff" stroke="#636e72" stroke-width="4"></rect><text x="654" y="968" fill="#636e72" font-size="44.5">UvD</text></g></g></svg>