<svg viewBox="0 0 2133 1200" style="background-color:#dfe6e9" title="SORTEREN-functie" alt="SORTEREN-functie" font-family="Sans,Arial" dy="0.25em" text-anchor="middle" xmlns="http://www.w3.org/2000/svg"><g id="box" transform="translate(566.6666666666665 100.0)"><g id="A1"><circle cx="47.5" cy="44.5" r="35.6" fill="#74b9ff" stroke="#636e72" stroke-width="4"></circle><text x="47" y="59" fill="#636e72" font-size="44.5">2</text></g><g id="B1"><rect x="107" y="0" width="169" height="89" fill="#74b9ff" stroke="#636e72" stroke-width="4"></rect><text x="191" y="59" fill="#636e72" font-size="44.5">2</text></g><g id="B1_comment"><line x1="288" y1="44.5" x2="332.5" y2="44.5" stroke-width="4" stroke="#e17055"></line><text x="288" y="59" fill="#e17055" font-size="44.5" text-anchor="start" dx="55.625">Sorteer op 2e kolom (cijfer)</text></g><g id="A2"><circle cx="47.5" cy="145.5" r="35.6" fill="#55efc4" stroke="#636e72" stroke-width="4"></circle><text x="47" y="160" fill="#636e72" font-size="44.5">3</text></g><g id="B2"><rect x="107" y="101" width="169" height="89" fill="#55efc4" stroke="#636e72" stroke-width="4"></rect><text x="191" y="160" fill="#636e72" font-size="44.5">-1</text></g><g id="B2_comment"><line x1="288" y1="145.5" x2="332.5" y2="145.5" stroke-width="4" stroke="#e17055"></line><text x="288" y="160" fill="#e17055" font-size="44.5" text-anchor="start" dx="55.625"><tspan x="288.0" y="160.0" dx="55.625">Sorteer aflopend</tspan><tspan x="288.0" y="213.4" dx="55.625">(-1 =aflopend, 1=oplopend)</tspan></text></g><g id="B4"><rect x="107" y="303" width="169" height="89" fill="transparent" stroke="transparent" stroke-width="4"></rect><text x="191" y="362" fill="#636e72" font-size="44.5">Student</text></g><g id="C4"><rect x="288" y="303" width="95" height="89" fill="transparent" stroke="transparent" stroke-width="4"></rect><text x="335" y="362" fill="#636e72" font-size="44.5">Cijfer</text></g><g id="F4"><rect x="717" y="303" width="135" height="89" fill="transparent" stroke="transparent" stroke-width="4"></rect><text x="784" y="362" fill="#636e72" font-size="44.5">Student</text></g><g id="G4"><rect x="864" y="303" width="95" height="89" fill="transparent" stroke="transparent" stroke-width="4"></rect><text x="911" y="362" fill="#636e72" font-size="44.5">Cijfer</text></g><g id="A5"><circle cx="47.5" cy="448.5" r="35.6" fill="#ffeaa7" stroke="#636e72" stroke-width="4"></circle><text x="47" y="463" fill="#636e72" font-size="44.5">1</text></g><g id="B5"><rect x="107" y="404" width="169" height="89" fill="#ffeaa7" stroke="#636e72" stroke-width="4"></rect><text x="191" y="463" fill="#636e72" font-size="44.5">AvdV</text></g><g id="C5"><rect x="288" y="404" width="95" height="89" fill="#ffeaa7" stroke="#636e72" stroke-width="4"></rect><text x="335" y="463" fill="#636e72" font-size="44.5">8</text></g><g id="F5_comment"><line x1="705" y1="448.5" x2="660.5" y2="448.5" stroke-width="4" stroke="#2d3436"></line><text x="705" y="463" fill="#2d3436" font-size="44.5" text-anchor="end" dx="-55.625"><tspan x="705.0" y="463.0" dx="-55.625">SORTEREN()</tspan><tspan x="705.0" y="516.4" dx="-55.625">functie</tspan></text></g><g id="F5"><rect x="717" y="404" width="135" height="89" fill="#2d3436" stroke="#2d3436" stroke-width="4"></rect><text x="784" y="463" fill="#ffffff" font-size="44.5">FOH</text></g><g id="G5"><rect x="864" y="404" width="95" height="89" fill="#ffffff" stroke="#636e72" stroke-width="4"></rect><text x="911" y="463" fill="#636e72" font-size="44.5">9.2</text></g><g id="B6"><rect x="107" y="505" width="169" height="89" fill="#ffeaa7" stroke="#636e72" stroke-width="4"></rect><text x="191" y="564" fill="#636e72" font-size="44.5">YvA</text></g><g id="C6"><rect x="288" y="505" width="95" height="89" fill="#ffeaa7" stroke="#636e72" stroke-width="4"></rect><text x="335" y="564" fill="#636e72" font-size="44.5">7</text></g><g id="F6"><rect x="717" y="505" width="135" height="89" fill="#ffffff" stroke="#636e72" stroke-width="4"></rect><text x="784" y="564" fill="#636e72" font-size="44.5">AvdV</text></g><g id="G6"><rect x="864" y="505" width="95" height="89" fill="#ffffff" stroke="#636e72" stroke-width="4"></rect><text x="911" y="564" fill="#636e72" font-size="44.5">8</text></g><g id="B7"><rect x="107" y="606" width="169" height="89" fill="#ffeaa7" stroke="#636e72" stroke-width="4"></rect><text x="191" y="665" fill="#636e72" font-size="44.5">FOH</text></g><g id="C7"><rect x="288" y="606" width="95" height="89" fill="#fdcb6e" stroke="#636e72" stroke-width="4"></rect><text x="335" y="665" fill="#636e72" font-size="44.5">9.2</text></g><g id="C7_comment"><line x1="395" y1="650.5" x2="439.5" y2="650.5" stroke-width="4" stroke="#e17055"></line><text x="395" y="665" fill="#e17055" font-size="44.5" text-anchor="start" dx="55.625"><tspan x="395.0" y="665.0" dx="55.625">Hoogste</tspan><tspan x="395.0" y="718.4" dx="55.625">cijfer</tspan></text></g><g id="F7"><rect x="717" y="606" width="135" height="89" fill="#ffffff" stroke="#636e72" stroke-width="4"></rect><text x="784" y="665" fill="#636e72" font-size="44.5">YvA</text></g><g id="G7"><rect x="864" y="606" width="95" height="89" fill="#ffffff" stroke="#636e72" stroke-width="4"></rect><text x="911" y="665" fill="#636e72" font-size="44.5">7</text></g><g id="B8"><rect x="107" y="707" width="169" height="89" fill="#ffeaa7" stroke="#636e72" stroke-width="4"></rect><text x="191" y="766" fill="#636e72" font-size="44.5">DvW</text></g><g id="C8"><rect x="288" y="707" width="95" height="89" fill="#ffeaa7" stroke="#636e72" stroke-width="4"></rect><text x="335" y="766" fill="#636e72" font-size="44.5">5.4</text></g><g id="F8"><rect x="717" y="707" width="135" height="89" fill="#ffffff" stroke="#636e72" stroke-width="4"></rect><text x="784" y="766" fill="#636e72" font-size="44.5">LW</text></g><g id="G8"><rect x="864" y="707" width="95" height="89" fill="#ffffff" stroke="#636e72" stroke-width="4"></rect><text x="911" y="766" fill="#636e72" font-size="44.5">6.4</text></g><g id="B9"><rect x="107" y="808" width="169" height="89" fill="#ffeaa7" stroke="#636e72" stroke-width="4"></rect><text x="191" y="867" fill="#636e72" font-size="44.5">MvB</text></g><g id="C9"><rect x="288" y="808" width="95" height="89" fill="#fdcb6e" stroke="#636e72" stroke-width="4"></rect><text x="335" y="867" fill="#636e72" font-size="44.5">4.8</text></g><g id="C9_comment"><line x1="395" y1="852.5" x2="439.5" y2="852.5" stroke-width="4" stroke="#e17055"></line><text x="395" y="867" fill="#e17055" font-size="44.5" text-anchor="start" dx="55.625"><tspan x="395.0" y="867.0" dx="55.625">Laagste</tspan><tspan x="395.0" y="920.4" dx="55.625">cijfer</tspan></text></g><g id="F9"><rect x="717" y="808" width="135" height="89" fill="#ffffff" stroke="#636e72" stroke-width="4"></rect><text x="784" y="867" fill="#636e72" font-size="44.5">DvW</text></g><g id="G9"><rect x="864" y="808" width="95" height="89" fill="#ffffff" stroke="#636e72" stroke-width="4"></rect><text x="911" y="867" fill="#636e72" font-size="44.5">5.4</text></g><g id="B10"><rect x="107" y="909" width="169" height="89" fill="#ffeaa7" stroke="#636e72" stroke-width="4"></rect><text x="191" y="968" fill="#636e72" font-size="44.5">LW</text></g><g id="C10"><rect x="288" y="909" width="95" height="89" fill="#ffeaa7" stroke="#636e72" stroke-width="4"></rect><text x="335" y="968" fill="#636e72" font-size="44.5">6.4</text></g><g id="F10"><rect x="717" y="909" width="135" height="89" fill="#ffffff" stroke="#636e72" stroke-width="4"></rect><text x="784" y="968" fill="#636e72" font-size="44.5">MvB</text></g><g id="G10"><rect x="864" y="909" width="95" height="89" fill="#ffffff" stroke="#636e72" stroke-width="4"></rect><text x="911" y="968" fill="#636e72" font-size="44.5">4.8</text></g></g></svg>