<svg viewBox="0 0 2133 1200" style="background-color:#dfe6e9" title="TEKST.SAMENV-functie" alt="TEKST.SAMENV-functie" font-family="Sans,Arial" dy="0.25em" text-anchor="middle" xmlns="http://www.w3.org/2000/svg"><g><text x="2047" y="1128" fill="#b2bec3" font-weight="normal" font-size="24" text-anchor="end">door Tristan Bains</text></g><g><text x="2047" y="1092" fill="#b2bec3" font-weight="bold" font-size="36" text-anchor="end">Excel in een dag</text></g><g id="box" transform="translate(566.6666666666665 100.0)"><g id="E3"><rect x="540" y="202" width="164" height="89" fill="transparent" stroke="transparent" stroke-width="4"></rect><text x="622" y="261" fill="#636e72" font-size="44.5">Tekst</text></g><g id="F3"><rect x="716" y="202" width="164" height="89" fill="transparent" stroke="transparent" stroke-width="4"></rect><text x="798" y="261" fill="#636e72" font-size="44.5">Tekst klein</text></g><g id="E4"><rect x="540" y="303" width="164" height="89" fill="#ffeaa7" stroke="#636e72" stroke-width="4"></rect><text x="622" y="362" fill="#636e72" font-size="44.5">ABC</text></g><g id="F4"><rect x="716" y="303" width="164" height="89" fill="#2d3436" stroke="#2d3436" stroke-width="4"></rect><text x="798" y="362" fill="#ffffff" font-size="44.5">abc</text></g><g id="F4_comment"><line x1="892" y1="347.5" x2="936.5" y2="347.5" stroke-width="4" stroke="#2d3436"></line><text x="892" y="362" fill="#2d3436" font-size="44.5" text-anchor="start" dx="55.625"><tspan x="892.0" y="362.0" dx="55.625">KLEINE.LETTERS()</tspan><tspan x="892.0" y="415.4" dx="55.625">functie</tspan></text></g><g id="E5"><rect x="540" y="404" width="164" height="89" fill="#55efc4" stroke="#636e72" stroke-width="4"></rect><text x="622" y="463" fill="#636e72" font-size="44.5">Def</text></g><g id="F5"><rect x="716" y="404" width="164" height="89" fill="#636e72" stroke="#636e72" stroke-width="4"></rect><text x="798" y="463" fill="#ffffff" font-size="44.5">def</text></g><g id="E6"><rect x="540" y="505" width="164" height="89" fill="#b2bec3" stroke="#636e72" stroke-width="4"></rect><text x="622" y="564" fill="#636e72" font-size="44.5">3 dagen</text></g><g id="F6"><rect x="716" y="505" width="164" height="89" fill="#636e72" stroke="#636e72" stroke-width="4"></rect><text x="798" y="564" fill="#ffffff" font-size="44.5">3 dagen</text></g><g id="E7"><rect x="540" y="606" width="164" height="89" fill="#b2bec3" stroke="#636e72" stroke-width="4"></rect><text x="622" y="665" fill="#636e72" font-size="44.5">BTW 21%</text></g><g id="F7"><rect x="716" y="606" width="164" height="89" fill="#636e72" stroke="#636e72" stroke-width="4"></rect><text x="798" y="665" fill="#ffffff" font-size="44.5">btw 21%</text></g></g></svg>