<svg viewBox="0 0 2133 1200" style="background-color:#dfe6e9" title="TEKST.SAMENV-functie" alt="TEKST.SAMENV-functie" font-family="Sans,Arial" dy="0.25em" text-anchor="middle" xmlns="http://www.w3.org/2000/svg"><g><text x="2047" y="1128" fill="#b2bec3" font-weight="normal" font-size="24" text-anchor="end">door Tristan Bains</text></g><g><text x="2047" y="1092" fill="#b2bec3" font-weight="bold" font-size="36" text-anchor="end">Excel in een dag</text></g><g id="box" transform="translate(566.6666666666665 100.0)"><g id="C3"><rect x="188" y="202" width="164" height="89" fill="transparent" stroke="transparent" stroke-width="4"></rect><text x="270" y="261" fill="#636e72" font-size="44.5">Kolom 1</text></g><g id="D3"><rect x="364" y="202" width="164" height="89" fill="transparent" stroke="transparent" stroke-width="4"></rect><text x="446" y="261" fill="#636e72" font-size="44.5">Kolom 2</text></g><g id="E3"><rect x="540" y="202" width="164" height="89" fill="transparent" stroke="transparent" stroke-width="4"></rect><text x="622" y="261" fill="#636e72" font-size="44.5">Kolom 3</text></g><g id="F3"><rect x="716" y="202" width="164" height="89" fill="transparent" stroke="transparent" stroke-width="4"></rect><text x="798" y="261" fill="#636e72" font-size="44.5">Samen</text></g><g id="B4"><circle cx="135.0" cy="347.5" r="35.6" fill="#ffeaa7" stroke="#636e72" stroke-width="4"></circle><text x="135" y="362" fill="#636e72" font-size="44.5">1</text></g><g id="C4"><rect x="188" y="303" width="164" height="89" fill="#ffeaa7" stroke="#636e72" stroke-width="4"></rect><text x="270" y="362" fill="#636e72" font-size="44.5">A</text></g><g id="D4"><rect x="364" y="303" width="164" height="89" fill="#ffeaa7" stroke="#636e72" stroke-width="4"></rect><text x="446" y="362" fill="#636e72" font-size="44.5">B</text></g><g id="E4"><rect x="540" y="303" width="164" height="89" fill="#ffeaa7" stroke="#636e72" stroke-width="4"></rect><text x="622" y="362" fill="#636e72" font-size="44.5">C</text></g><g id="F4"><rect x="716" y="303" width="164" height="89" fill="#2d3436" stroke="#2d3436" stroke-width="4"></rect><text x="798" y="362" fill="#ffffff" font-size="44.5">ABC</text></g><g id="F4_comment"><line x1="892" y1="347.5" x2="936.5" y2="347.5" stroke-width="4" stroke="#2d3436"></line><text x="892" y="362" fill="#2d3436" font-size="44.5" text-anchor="start" dx="55.625"><tspan x="892.0" y="362.0" dx="55.625">TEKST.SAMENV()</tspan><tspan x="892.0" y="415.4" dx="55.625">functie</tspan></text></g><g id="A5"><circle cx="41.0" cy="448.5" r="35.6" fill="#74b9ff" stroke="#636e72" stroke-width="4"></circle><text x="41" y="463" fill="#636e72" font-size="44.5">1</text></g><g id="B5"><circle cx="135.0" cy="448.5" r="35.6" fill="#55efc4" stroke="#636e72" stroke-width="4"></circle><text x="135" y="463" fill="#636e72" font-size="44.5">2</text></g><g id="C5"><rect x="188" y="404" width="164" height="89" fill="#74b9ff" stroke="#636e72" stroke-width="4"></rect><text x="270" y="463" fill="#636e72" font-size="44.5">D</text></g><g id="D5"><rect x="364" y="404" width="164" height="89" fill="#55efc4" stroke="#636e72" stroke-width="4"></rect><text x="446" y="463" fill="#636e72" font-size="44.5">3</text></g><g id="E5"><rect x="540" y="404" width="164" height="89" fill="#55efc4" stroke="#636e72" stroke-width="4"></rect><text x="622" y="463" fill="#636e72" font-size="44.5">F</text></g><g id="F5"><rect x="716" y="404" width="164" height="89" fill="#2d3436" stroke="#2d3436" stroke-width="4"></rect><text x="798" y="463" fill="#ffffff" font-size="44.5">D3F</text></g><g id="C6"><rect x="188" y="505" width="164" height="89" fill="#b2bec3" stroke="#636e72" stroke-width="4"></rect><text x="270" y="564" fill="#636e72" font-size="44.5">1</text></g><g id="D6"><rect x="364" y="505" width="164" height="89" fill="#b2bec3" stroke="#636e72" stroke-width="4"></rect><text x="446" y="564" fill="#636e72" font-size="44.5">2</text></g><g id="E6"><rect x="540" y="505" width="164" height="89" fill="#b2bec3" stroke="#636e72" stroke-width="4"></rect><text x="622" y="564" fill="#636e72" font-size="44.5">3</text></g><g id="F6"><rect x="716" y="505" width="164" height="89" fill="#636e72" stroke="#636e72" stroke-width="4"></rect><text x="798" y="564" fill="#ffffff" font-size="44.5">123</text></g><g id="C7"><rect x="188" y="606" width="164" height="89" fill="#b2bec3" stroke="#636e72" stroke-width="4"></rect><text x="270" y="665" fill="#636e72" font-size="44.5">G</text></g><g id="D7"><rect x="364" y="606" width="164" height="89" fill="#b2bec3" stroke="#636e72" stroke-width="4"></rect><text x="446" y="665" fill="#636e72" font-size="44.5">h</text></g><g id="E7"><rect x="540" y="606" width="164" height="89" fill="#b2bec3" stroke="#636e72" stroke-width="4"></rect><text x="622" y="665" fill="#636e72" font-size="44.5">I</text></g><g id="F7"><rect x="716" y="606" width="164" height="89" fill="#636e72" stroke="#636e72" stroke-width="4"></rect><text x="798" y="665" fill="#ffffff" font-size="44.5">GhI</text></g><g id="C8"><rect x="188" y="707" width="164" height="89" fill="#b2bec3" stroke="#636e72" stroke-width="4"></rect><text x="270" y="766" fill="#636e72" font-size="44.5">a</text></g><g id="D8"><rect x="364" y="707" width="164" height="89" fill="#b2bec3" stroke="#636e72" stroke-width="4"></rect><text x="446" y="766" fill="#636e72" font-size="44.5">_</text></g><g id="E8"><rect x="540" y="707" width="164" height="89" fill="#b2bec3" stroke="#636e72" stroke-width="4"></rect><text x="622" y="766" fill="#636e72" font-size="44.5">c</text></g><g id="F8"><rect x="716" y="707" width="164" height="89" fill="#636e72" stroke="#636e72" stroke-width="4"></rect><text x="798" y="766" fill="#ffffff" font-size="44.5">a_c</text></g></g></svg>