<svg viewBox="0 0 2133 1200" style="background-color:#dfe6e9" title="TEKST.NA-functie" alt="TEKST.NA-functie" font-family="Sans,Arial" dy="0.25em" text-anchor="middle" xmlns="http://www.w3.org/2000/svg"><g><text x="2047" y="1128" fill="#b2bec3" font-weight="normal" font-size="24" text-anchor="end">door Tristan Bains</text></g><g><text x="2047" y="1092" fill="#b2bec3" font-weight="bold" font-size="36" text-anchor="end">Excel in een dag</text></g><g id="box" transform="translate(566.6666666666665 100.0)"><g id="B1"><circle cx="66.5" cy="44.5" r="35.6" fill="#55efc4" stroke="#636e72" stroke-width="4"></circle><text x="66" y="59" fill="#636e72" font-size="44.5">2</text></g><g id="C1"><rect x="133" y="0" width="219" height="89" fill="#55efc4" stroke="#636e72" stroke-width="4"></rect><text x="242" y="59" fill="#636e72" font-size="44.5">A</text></g><g id="C1_comment"><line x1="364" y1="44.5" x2="408.5" y2="44.5" stroke-width="4" stroke="#e17055"></line><text x="364" y="59" fill="#e17055" font-size="44.5" text-anchor="start" dx="55.625">Delimiter, pak alles na A</text></g><g id="B2"><circle cx="66.5" cy="145.5" r="35.6" fill="#74b9ff" stroke="#636e72" stroke-width="4"></circle><text x="66" y="160" fill="#636e72" font-size="44.5">4</text></g><g id="C2"><rect x="133" y="101" width="219" height="89" fill="#74b9ff" stroke="#636e72" stroke-width="4"></rect><text x="242" y="160" fill="#636e72" font-size="44.5">0</text></g><g id="C2_comment"><line x1="364" y1="145.5" x2="408.5" y2="145.5" stroke-width="4" stroke="#e17055"></line><text x="364" y="160" fill="#e17055" font-size="44.5" text-anchor="start" dx="55.625">Hoofdlettergevoelig (0=ja, 1=nee)</text></g><g id="B3"><circle cx="66.5" cy="246.5" r="35.6" fill="#ff7675" stroke="#636e72" stroke-width="4"></circle><text x="66" y="261" fill="#636e72" font-size="44.5">6</text></g><g id="C3"><rect x="133" y="202" width="219" height="89" fill="#ff7675" stroke="#636e72" stroke-width="4"></rect><text x="242" y="261" fill="#636e72" font-size="44.5">_</text></g><g id="C3_comment"><line x1="364" y1="246.5" x2="408.5" y2="246.5" stroke-width="4" stroke="#e17055"></line><text x="364" y="261" fill="#e17055" font-size="44.5" text-anchor="start" dx="55.625"><tspan x="364.0" y="261.0" dx="55.625">Output als A helemaal</tspan><tspan x="364.0" y="314.4" dx="55.625">niet voorkomt</tspan></text></g><g id="C5"><rect x="133" y="404" width="219" height="89" fill="transparent" stroke="transparent" stroke-width="4"></rect><text x="242" y="463" fill="#636e72" font-size="44.5">Origineel</text></g><g id="D5"><rect x="364" y="404" width="219" height="89" fill="transparent" stroke="transparent" stroke-width="4"></rect><text x="473" y="463" fill="#636e72" font-size="44.5">Aangepast</text></g><g id="C6"><rect x="133" y="505" width="219" height="89" fill="#b2bec3" stroke="#636e72" stroke-width="4"></rect><text x="242" y="564" fill="#636e72" font-size="44.5">abA cAde</text></g><g id="D6"><rect x="364" y="505" width="219" height="89" fill="#636e72" stroke="#636e72" stroke-width="4"></rect><text x="473" y="564" fill="#ffffff" font-size="44.5"> cAde</text></g><g id="D6_comment"><line x1="595" y1="549.5" x2="639.5" y2="549.5" stroke-width="4" stroke="#b2bec3"></line><text x="595" y="564" fill="#b2bec3" font-size="44.5" text-anchor="start" dx="55.625">Alles na eerste A</text></g><g id="B7"><circle cx="66.5" cy="650.5" r="35.6" fill="#ffeaa7" stroke="#636e72" stroke-width="4"></circle><text x="66" y="665" fill="#636e72" font-size="44.5">1</text></g><g id="C7"><rect x="133" y="606" width="219" height="89" fill="#ffeaa7" stroke="#636e72" stroke-width="4"></rect><text x="242" y="665" fill="#636e72" font-size="44.5">abc ABC</text></g><g id="D7"><rect x="364" y="606" width="219" height="89" fill="#2d3436" stroke="#2d3436" stroke-width="4"></rect><text x="473" y="665" fill="#ffffff" font-size="44.5">BC</text></g><g id="D7_comment"><line x1="595" y1="650.5" x2="639.5" y2="650.5" stroke-width="4" stroke="#2d3436"></line><text x="595" y="665" fill="#2d3436" font-size="44.5" text-anchor="start" dx="55.625"><tspan x="595.0" y="665.0" dx="55.625">TEKST.NA()</tspan><tspan x="595.0" y="718.4" dx="55.625">functie</tspan></text></g><g id="C8"><rect x="133" y="707" width="219" height="89" fill="#b2bec3" stroke="#636e72" stroke-width="4"></rect><text x="242" y="766" fill="#636e72" font-size="44.5">123 ABC</text></g><g id="D8"><rect x="364" y="707" width="219" height="89" fill="#636e72" stroke="#636e72" stroke-width="4"></rect><text x="473" y="766" fill="#ffffff" font-size="44.5">BC</text></g><g id="C9"><rect x="133" y="808" width="219" height="89" fill="#b2bec3" stroke="#636e72" stroke-width="4"></rect><text x="242" y="867" fill="#636e72" font-size="44.5">abc</text></g><g id="D9"><rect x="364" y="808" width="219" height="89" fill="#636e72" stroke="#636e72" stroke-width="4"></rect><text x="473" y="867" fill="#ffffff" font-size="44.5">_</text></g><g id="D9_comment"><line x1="595" y1="852.5" x2="639.5" y2="852.5" stroke-width="4" stroke="#b2bec3"></line><text x="595" y="867" fill="#b2bec3" font-size="44.5" text-anchor="start" dx="55.625">Geen A</text></g></g></svg>