<svg viewBox="0 0 2133 1200" style="background-color:#dfe6e9" title="UNIEK-functie" alt="UNIEK-functie" font-family="Sans,Arial" dy="0.25em" text-anchor="middle" xmlns="http://www.w3.org/2000/svg"><g id="box" transform="translate(566.6666666666665 100.0)"><g id="C2"><circle cx="349.5" cy="145.5" r="35.6" fill="#ffeaa7" stroke="#636e72" stroke-width="4"></circle><text x="349" y="160" fill="#636e72" font-size="44.5">1</text></g><g id="C3"><rect x="225" y="202" width="249" height="89" fill="transparent" stroke="transparent" stroke-width="4"></rect><text x="349" y="261" fill="#636e72" font-size="44.5">Stad</text></g><g id="F3"><rect x="556" y="202" width="249" height="89" fill="transparent" stroke="transparent" stroke-width="4"></rect><text x="680" y="261" fill="#636e72" font-size="44.5">Stad</text></g><g id="C4_comment"><line x1="213" y1="347.5" x2="168.5" y2="347.5" stroke-width="4" stroke="#e17055"></line><text x="213" y="362" fill="#e17055" font-size="44.5" text-anchor="end" dx="-55.625"><tspan x="213.0" y="362.0" dx="-55.625">Eerste keer</tspan><tspan x="213.0" y="415.4" dx="-55.625">Amsterdam</tspan></text></g><g id="C4"><rect x="225" y="303" width="249" height="89" fill="#fdcb6e" stroke="#636e72" stroke-width="4"></rect><text x="349" y="362" fill="#636e72" font-size="44.5">Amsterdam</text></g><g id="F4"><rect x="556" y="303" width="249" height="89" fill="#2d3436" stroke="#2d3436" stroke-width="4"></rect><text x="680" y="362" fill="#ffffff" font-size="44.5">Amsterdam</text></g><g id="F4_comment"><line x1="817" y1="347.5" x2="861.5" y2="347.5" stroke-width="4" stroke="#2d3436"></line><text x="817" y="362" fill="#2d3436" font-size="44.5" text-anchor="start" dx="55.625"><tspan x="817.0" y="362.0" dx="55.625">UNIEK()</tspan><tspan x="817.0" y="415.4" dx="55.625">functie</tspan></text></g><g id="C5"><rect x="225" y="404" width="249" height="89" fill="#ffeaa7" stroke="#636e72" stroke-width="4"></rect><text x="349" y="463" fill="#636e72" font-size="44.5">Amsterdam</text></g><g id="F5"><rect x="556" y="404" width="249" height="89" fill="#ffffff" stroke="#636e72" stroke-width="4"></rect><text x="680" y="463" fill="#636e72" font-size="44.5">Den Haag</text></g><g id="C6_comment"><line x1="213" y1="549.5" x2="168.5" y2="549.5" stroke-width="4" stroke="#e17055"></line><text x="213" y="564" fill="#e17055" font-size="44.5" text-anchor="end" dx="-55.625"><tspan x="213.0" y="564.0" dx="-55.625">Eerste keer</tspan><tspan x="213.0" y="617.4" dx="-55.625">Den Haag</tspan></text></g><g id="C6"><rect x="225" y="505" width="249" height="89" fill="#fdcb6e" stroke="#636e72" stroke-width="4"></rect><text x="349" y="564" fill="#636e72" font-size="44.5">Den Haag</text></g><g id="F6"><rect x="556" y="505" width="249" height="89" fill="#ffffff" stroke="#636e72" stroke-width="4"></rect><text x="680" y="564" fill="#636e72" font-size="44.5">Utrecht</text></g><g id="F6_comment"><line x1="817" y1="549.5" x2="861.5" y2="549.5" stroke-width="4" stroke="#e17055"></line><text x="817" y="564" fill="#e17055" font-size="44.5" text-anchor="start" dx="55.625"><tspan x="817.0" y="564.0" dx="55.625">Witte cellen</tspan><tspan x="817.0" y="617.4" dx="55.625">worden door</tspan><tspan x="817.0" y="670.8" dx="55.625">UNIEK gevuld</tspan></text></g><g id="C7"><rect x="225" y="606" width="249" height="89" fill="#ffeaa7" stroke="#636e72" stroke-width="4"></rect><text x="349" y="665" fill="#636e72" font-size="44.5">Amsterdam</text></g><g id="C8_comment"><line x1="213" y1="751.5" x2="168.5" y2="751.5" stroke-width="4" stroke="#e17055"></line><text x="213" y="766" fill="#e17055" font-size="44.5" text-anchor="end" dx="-55.625"><tspan x="213.0" y="766.0" dx="-55.625">Eerste keer</tspan><tspan x="213.0" y="819.4" dx="-55.625">Utrecht</tspan></text></g><g id="C8"><rect x="225" y="707" width="249" height="89" fill="#fdcb6e" stroke="#636e72" stroke-width="4"></rect><text x="349" y="766" fill="#636e72" font-size="44.5">Utrecht</text></g><g id="C9"><rect x="225" y="808" width="249" height="89" fill="#ffeaa7" stroke="#636e72" stroke-width="4"></rect><text x="349" y="867" fill="#636e72" font-size="44.5">Den Haag</text></g><g id="C10"><rect x="225" y="909" width="249" height="89" fill="#ffeaa7" stroke="#636e72" stroke-width="4"></rect><text x="349" y="968" fill="#636e72" font-size="44.5">Utrecht</text></g></g></svg>