<svg viewBox="0 0 2133 1200" style="background-color:#dfe6e9" title="VERT.ZOEKEN-functie-meerdere-criteria" alt="VERT.ZOEKEN-functie-meerdere-criteria" font-family="Sans,Arial" dy="0.25em" text-anchor="middle" xmlns="http://www.w3.org/2000/svg"><g id="box" transform="translate(566.6666666666665 100.0)"><g id="D1"><circle cx="622.0" cy="44.5" r="35.6" fill="#55efc4" stroke="#636e72" stroke-width="4"></circle><text x="622" y="59" fill="#636e72" font-size="44.5">1</text></g><g id="D1_comment"><line x1="714" y1="44.5" x2="758.5" y2="44.5" stroke-width="4" stroke="#e17055"></line><text x="714" y="59" fill="#e17055" font-size="44.5" text-anchor="start" dx="55.625"><tspan x="714.0" y="59.0" dx="55.625">Plak Dennis en HR</tspan><tspan x="714.0" y="112.4" dx="55.625">aan elkaar in</tspan><tspan x="714.0" y="165.8" dx="55.625">eerste input argument</tspan></text></g><g id="C2"><rect x="370" y="101" width="160" height="89" fill="transparent" stroke="transparent" stroke-width="4"></rect><text x="450" y="160" fill="#636e72" font-size="44.5">Naam</text></g><g id="D2"><rect x="542" y="101" width="160" height="89" fill="#55efc4" stroke="#636e72" stroke-width="4"></rect><text x="622" y="160" fill="#636e72" font-size="44.5">Dennis</text></g><g id="C3"><rect x="370" y="202" width="160" height="89" fill="transparent" stroke="transparent" stroke-width="4"></rect><text x="450" y="261" fill="#636e72" font-size="44.5">Team</text></g><g id="D3"><rect x="542" y="202" width="160" height="89" fill="#55efc4" stroke="#636e72" stroke-width="4"></rect><text x="622" y="261" fill="#636e72" font-size="44.5">HR</text></g><g id="C4"><rect x="370" y="303" width="160" height="89" fill="transparent" stroke="transparent" stroke-width="4"></rect><text x="450" y="362" fill="#636e72" font-size="44.5">Jaren</text></g><g id="D4"><rect x="542" y="303" width="160" height="89" fill="#2d3436" stroke="#2d3436" stroke-width="4"></rect><text x="622" y="362" fill="#ffffff" font-size="44.5">17</text></g><g id="D4_comment"><line x1="714" y1="347.5" x2="758.5" y2="347.5" stroke-width="4" stroke="#2d3436"></line><text x="714" y="362" fill="#2d3436" font-size="44.5" text-anchor="start" dx="55.625"><tspan x="714.0" y="362.0" dx="55.625">VERT.ZOEKEN()</tspan><tspan x="714.0" y="415.4" dx="55.625">functie</tspan></text></g><g id="B6"><rect x="83" y="505" width="275" height="89" fill="transparent" stroke="transparent" stroke-width="4"></rect><text x="220" y="564" fill="#636e72" font-size="44.5">Hulpkolom</text></g><g id="C6"><rect x="370" y="505" width="160" height="89" fill="transparent" stroke="transparent" stroke-width="4"></rect><text x="450" y="564" fill="#636e72" font-size="44.5">Naam</text></g><g id="D6"><rect x="542" y="505" width="160" height="89" fill="transparent" stroke="transparent" stroke-width="4"></rect><text x="622" y="564" fill="#636e72" font-size="44.5">Team</text></g><g id="E6"><rect x="714" y="505" width="133" height="89" fill="transparent" stroke="transparent" stroke-width="4"></rect><text x="780" y="564" fill="#636e72" font-size="44.5">Jaren</text></g><g id="A7"><circle cx="35.5" cy="650.5" r="35.6" fill="#ffeaa7" stroke="#636e72" stroke-width="4"></circle><text x="35" y="665" fill="#636e72" font-size="44.5">2</text></g><g id="B7"><rect x="83" y="606" width="275" height="89" fill="#ffeaa7" stroke="#636e72" stroke-width="4"></rect><text x="220" y="665" fill="#636e72" font-size="44.5">DennisLegal</text></g><g id="C7"><rect x="370" y="606" width="160" height="89" fill="#ffeaa7" stroke="#636e72" stroke-width="4"></rect><text x="450" y="665" fill="#636e72" font-size="44.5">Dennis</text></g><g id="D7"><rect x="542" y="606" width="160" height="89" fill="#ffeaa7" stroke="#636e72" stroke-width="4"></rect><text x="622" y="665" fill="#636e72" font-size="44.5">Legal</text></g><g id="E7"><rect x="714" y="606" width="133" height="89" fill="#ffeaa7" stroke="#636e72" stroke-width="4"></rect><text x="780" y="665" fill="#636e72" font-size="44.5">2</text></g><g id="B8"><rect x="83" y="707" width="275" height="89" fill="#ffeaa7" stroke="#636e72" stroke-width="4"></rect><text x="220" y="766" fill="#636e72" font-size="44.5">AnnaLegal</text></g><g id="C8"><rect x="370" y="707" width="160" height="89" fill="#ffeaa7" stroke="#636e72" stroke-width="4"></rect><text x="450" y="766" fill="#636e72" font-size="44.5">Anna</text></g><g id="D8"><rect x="542" y="707" width="160" height="89" fill="#ffeaa7" stroke="#636e72" stroke-width="4"></rect><text x="622" y="766" fill="#636e72" font-size="44.5">Legal</text></g><g id="E8"><rect x="714" y="707" width="133" height="89" fill="#ffeaa7" stroke="#636e72" stroke-width="4"></rect><text x="780" y="766" fill="#636e72" font-size="44.5">5</text></g><g id="B9"><rect x="83" y="808" width="275" height="89" fill="#fdcb6e" stroke="#636e72" stroke-width="4"></rect><text x="220" y="867" fill="#636e72" font-size="44.5">DennisHR</text></g><g id="C9"><rect x="370" y="808" width="160" height="89" fill="#ffeaa7" stroke="#636e72" stroke-width="4"></rect><text x="450" y="867" fill="#636e72" font-size="44.5">Dennis</text></g><g id="D9"><rect x="542" y="808" width="160" height="89" fill="#ffeaa7" stroke="#636e72" stroke-width="4"></rect><text x="622" y="867" fill="#636e72" font-size="44.5">HR</text></g><g id="E9"><rect x="714" y="808" width="133" height="89" fill="#fdcb6e" stroke="#636e72" stroke-width="4"></rect><text x="780" y="867" fill="#636e72" font-size="44.5">17</text></g><g id="B10"><rect x="83" y="909" width="275" height="89" fill="#ffeaa7" stroke="#636e72" stroke-width="4"></rect><text x="220" y="968" fill="#636e72" font-size="44.5">LisaHR</text></g><g id="C10"><rect x="370" y="909" width="160" height="89" fill="#ffeaa7" stroke="#636e72" stroke-width="4"></rect><text x="450" y="968" fill="#636e72" font-size="44.5">Lisa</text></g><g id="D10"><rect x="542" y="909" width="160" height="89" fill="#ffeaa7" stroke="#636e72" stroke-width="4"></rect><text x="622" y="968" fill="#636e72" font-size="44.5">HR</text></g><g id="E10"><rect x="714" y="909" width="133" height="89" fill="#ffeaa7" stroke="#636e72" stroke-width="4"></rect><text x="780" y="968" fill="#636e72" font-size="44.5">3</text></g></g></svg>