<svg viewBox="0 0 2133 1200" style="background-color:#dfe6e9" title="VERT.ZOEKEN-functie-vs-X.ZOEKEN" alt="VERT.ZOEKEN-functie-vs-X.ZOEKEN" font-family="Sans,Arial" dy="0.25em" text-anchor="middle" xmlns="http://www.w3.org/2000/svg"><g><text x="2047" y="1128" fill="#b2bec3" font-weight="normal" font-size="24" text-anchor="end">door Tristan Bains</text></g><g><text x="2047" y="1092" fill="#b2bec3" font-weight="bold" font-size="36" text-anchor="end">Excel in een dag</text></g><g id="box" transform="translate(566.6666666666665 100.0)"><g id="B2"><circle cx="148.0" cy="145.5" r="35.6" fill="#55efc4" stroke="#636e72" stroke-width="4"></circle><text x="148" y="160" fill="#636e72" font-size="44.5">1</text></g><g id="C2"><rect x="248" y="101" width="176" height="89" fill="#55efc4" stroke="#636e72" stroke-width="4"></rect><text x="336" y="160" fill="#636e72" font-size="44.5">180</text></g><g id="D2"><rect x="436" y="101" width="215" height="89" fill="#2d3436" stroke="#2d3436" stroke-width="4"></rect><text x="543" y="160" fill="#ffffff" font-size="44.5">Gold</text></g><g id="D2_comment"><line x1="663" y1="145.5" x2="707.5" y2="145.5" stroke-width="4" stroke="#2d3436"></line><text x="663" y="160" fill="#2d3436" font-size="44.5" text-anchor="start" dx="55.625">X.ZOEKEN</text></g><g id="C3"><rect x="248" y="202" width="176" height="89" fill="#C9D2D6" stroke="transparent" stroke-width="4"></rect><text x="336" y="261" fill="#b2bec3" font-size="44.5">180</text></g><g id="D3"><rect x="436" y="202" width="215" height="89" fill="#636e72" stroke="#636e72" stroke-width="4"></rect><text x="543" y="261" fill="#ffffff" font-size="44.5">Gold</text></g><g id="D3_comment"><line x1="663" y1="246.5" x2="707.5" y2="246.5" stroke-width="4" stroke="#2d3436"></line><text x="663" y="261" fill="#2d3436" font-size="44.5" text-anchor="start" dx="55.625"><tspan x="663.0" y="261.0" dx="55.625">VERT.ZOEKEN met</tspan><tspan x="663.0" y="314.4" dx="55.625">exacte match</tspan></text></g><g id="C5"><circle cx="336.0" cy="448.5" r="35.6" fill="#ffeaa7" stroke="#636e72" stroke-width="4"></circle><text x="336" y="463" fill="#636e72" font-size="44.5">2</text></g><g id="D5"><circle cx="543.5" cy="448.5" r="35.6" fill="#74b9ff" stroke="#636e72" stroke-width="4"></circle><text x="543" y="463" fill="#636e72" font-size="44.5">3</text></g><g id="B6"><rect x="60" y="505" width="176" height="89" fill="transparent" stroke="transparent" stroke-width="4"></rect><text x="148" y="564" fill="#b2bec3" font-size="44.5">Kleur</text></g><g id="C6"><rect x="248" y="505" width="176" height="89" fill="transparent" stroke="transparent" stroke-width="4"></rect><text x="336" y="564" fill="#636e72" font-size="44.5">Aantal</text></g><g id="D6"><rect x="436" y="505" width="215" height="89" fill="transparent" stroke="transparent" stroke-width="4"></rect><text x="543" y="564" fill="#636e72" font-size="44.5">Level</text></g><g id="E6"><rect x="663" y="505" width="176" height="89" fill="transparent" stroke="transparent" stroke-width="4"></rect><text x="751" y="564" fill="#b2bec3" font-size="44.5">Korting</text></g><g id="B7"><rect x="60" y="606" width="176" height="89" fill="#C9D2D6" stroke="transparent" stroke-width="4"></rect><text x="148" y="665" fill="#b2bec3" font-size="44.5">Blauw</text></g><g id="C7"><rect x="248" y="606" width="176" height="89" fill="#ffeaa7" stroke="#636e72" stroke-width="4"></rect><text x="336" y="665" fill="#636e72" font-size="44.5">0</text></g><g id="D7"><rect x="436" y="606" width="215" height="89" fill="#74b9ff" stroke="#636e72" stroke-width="4"></rect><text x="543" y="665" fill="#636e72" font-size="44.5">Explorer</text></g><g id="E7"><rect x="663" y="606" width="176" height="89" fill="#C9D2D6" stroke="transparent" stroke-width="4"></rect><text x="751" y="665" fill="#b2bec3" font-size="44.5">-5</text></g><g id="B8"><rect x="60" y="707" width="176" height="89" fill="#C9D2D6" stroke="transparent" stroke-width="4"></rect><text x="148" y="766" fill="#b2bec3" font-size="44.5">Zilver</text></g><g id="C8"><rect x="248" y="707" width="176" height="89" fill="#ffeaa7" stroke="#636e72" stroke-width="4"></rect><text x="336" y="766" fill="#636e72" font-size="44.5">100</text></g><g id="D8"><rect x="436" y="707" width="215" height="89" fill="#74b9ff" stroke="#636e72" stroke-width="4"></rect><text x="543" y="766" fill="#636e72" font-size="44.5">Silver</text></g><g id="E8"><rect x="663" y="707" width="176" height="89" fill="#C9D2D6" stroke="transparent" stroke-width="4"></rect><text x="751" y="766" fill="#b2bec3" font-size="44.5">-10</text></g><g id="B9"><rect x="60" y="808" width="176" height="89" fill="#C9D2D6" stroke="transparent" stroke-width="4"></rect><text x="148" y="867" fill="#b2bec3" font-size="44.5">Goud</text></g><g id="C9"><rect x="248" y="808" width="176" height="89" fill="#fdcb6e" stroke="#636e72" stroke-width="4"></rect><text x="336" y="867" fill="#636e72" font-size="44.5">180</text></g><g id="D9"><rect x="436" y="808" width="215" height="89" fill="#0984e3" stroke="#636e72" stroke-width="4"></rect><text x="543" y="867" fill="#ffffff" font-size="44.5">Gold</text></g><g id="E9"><rect x="663" y="808" width="176" height="89" fill="#C9D2D6" stroke="transparent" stroke-width="4"></rect><text x="751" y="867" fill="#b2bec3" font-size="44.5">-20</text></g><g id="B10"><rect x="60" y="909" width="176" height="89" fill="#C9D2D6" stroke="transparent" stroke-width="4"></rect><text x="148" y="968" fill="#b2bec3" font-size="44.5">Platina</text></g><g id="C10"><rect x="248" y="909" width="176" height="89" fill="#ffeaa7" stroke="#636e72" stroke-width="4"></rect><text x="336" y="968" fill="#636e72" font-size="44.5">300</text></g><g id="D10"><rect x="436" y="909" width="215" height="89" fill="#74b9ff" stroke="#636e72" stroke-width="4"></rect><text x="543" y="968" fill="#636e72" font-size="44.5">Platinum</text></g><g id="E10"><rect x="663" y="909" width="176" height="89" fill="#C9D2D6" stroke="transparent" stroke-width="4"></rect><text x="751" y="968" fill="#b2bec3" font-size="44.5">-25</text></g></g></svg>