<svg viewBox="0 0 2133 1200" style="background-color:#dfe6e9" title="VERT.ZOEKEN-functie" alt="VERT.ZOEKEN-functie" font-family="Sans,Arial" dy="0.25em" text-anchor="middle" xmlns="http://www.w3.org/2000/svg"><g id="box" transform="translate(566.6666666666665 100.0)"><g id="C1"><rect x="158" y="0" width="155" height="89" fill="transparent" stroke="transparent" stroke-width="4"></rect><text x="235" y="59" fill="#636e72" font-size="44.5">Student</text></g><g id="D1"><rect x="325" y="0" width="107" height="89" fill="transparent" stroke="transparent" stroke-width="4"></rect><text x="378" y="59" fill="#636e72" font-size="44.5">Cijfer</text></g><g id="B2"><circle cx="95.5" cy="145.5" r="35.6" fill="#55efc4" stroke="#636e72" stroke-width="4"></circle><text x="95" y="160" fill="#636e72" font-size="44.5">1</text></g><g id="C2"><rect x="158" y="101" width="155" height="89" fill="#55efc4" stroke="#636e72" stroke-width="4"></rect><text x="235" y="160" fill="#636e72" font-size="44.5">DvW</text></g><g id="D2"><rect x="325" y="101" width="107" height="89" fill="#2d3436" stroke="#2d3436" stroke-width="4"></rect><text x="378" y="160" fill="#ffffff" font-size="44.5">7</text></g><g id="D2_comment"><line x1="444" y1="145.5" x2="488.5" y2="145.5" stroke-width="4" stroke="#2d3436"></line><text x="444" y="160" fill="#2d3436" font-size="44.5" text-anchor="start" dx="55.625"><tspan x="444.0" y="160.0" dx="55.625">VERT.ZOEKEN()</tspan><tspan x="444.0" y="213.4" dx="55.625">functie</tspan></text></g><g id="G3"><circle cx="679.0" cy="246.5" r="35.6" fill="#74b9ff" stroke="#636e72" stroke-width="4"></circle><text x="679" y="261" fill="#636e72" font-size="44.5">3</text></g><g id="H3"><circle cx="862.5" cy="246.5" r="35.6" fill="#a29bfe" stroke="#636e72" stroke-width="4"></circle><text x="862" y="261" fill="#636e72" font-size="44.5">4</text></g><g id="C4"><rect x="158" y="303" width="155" height="89" fill="transparent" stroke="transparent" stroke-width="4"></rect><text x="235" y="362" fill="#636e72" font-size="44.5">Student</text></g><g id="D4"><rect x="325" y="303" width="107" height="89" fill="transparent" stroke="transparent" stroke-width="4"></rect><text x="378" y="362" fill="#636e72" font-size="44.5">#Les</text></g><g id="E4"><rect x="444" y="303" width="114" height="89" fill="transparent" stroke="transparent" stroke-width="4"></rect><text x="501" y="362" fill="#636e72" font-size="44.5">Cijfer</text></g><g id="G4"><rect x="615" y="303" width="128" height="89" fill="transparent" stroke="transparent" stroke-width="4"></rect><text x="679" y="362" fill="#636e72" font-size="44.5">Kolom</text></g><g id="H4"><rect x="755" y="303" width="215" height="89" fill="transparent" stroke="transparent" stroke-width="4"></rect><text x="862" y="362" fill="#636e72" font-size="44.5">Benaderen</text></g><g id="B5"><circle cx="95.5" cy="448.5" r="35.6" fill="#ffeaa7" stroke="#636e72" stroke-width="4"></circle><text x="95" y="463" fill="#636e72" font-size="44.5">2</text></g><g id="C5"><rect x="158" y="404" width="155" height="89" fill="#ffeaa7" stroke="#636e72" stroke-width="4"></rect><text x="235" y="463" fill="#636e72" font-size="44.5">LW</text></g><g id="D5"><rect x="325" y="404" width="107" height="89" fill="#ffeaa7" stroke="#636e72" stroke-width="4"></rect><text x="378" y="463" fill="#636e72" font-size="44.5">7</text></g><g id="E5"><rect x="444" y="404" width="114" height="89" fill="#ffeaa7" stroke="#636e72" stroke-width="4"></rect><text x="501" y="463" fill="#636e72" font-size="44.5">8</text></g><g id="G5"><rect x="615" y="404" width="128" height="89" fill="#74b9ff" stroke="#636e72" stroke-width="4"></rect><text x="679" y="463" fill="#636e72" font-size="44.5">3</text></g><g id="H5"><rect x="755" y="404" width="215" height="89" fill="#a29bfe" stroke="#636e72" stroke-width="4"></rect><text x="862" y="463" fill="#636e72" font-size="44.5">ONWAAR</text></g><g id="C6"><rect x="158" y="505" width="155" height="89" fill="#ffeaa7" stroke="#636e72" stroke-width="4"></rect><text x="235" y="564" fill="#636e72" font-size="44.5">MvB</text></g><g id="D6"><rect x="325" y="505" width="107" height="89" fill="#ffeaa7" stroke="#636e72" stroke-width="4"></rect><text x="378" y="564" fill="#636e72" font-size="44.5">4</text></g><g id="E6"><rect x="444" y="505" width="114" height="89" fill="#ffeaa7" stroke="#636e72" stroke-width="4"></rect><text x="501" y="564" fill="#636e72" font-size="44.5">7</text></g><g id="H5_comment"><line x1="862.5" y1="505" x2="862.5" y2="549.5" stroke-width="4" stroke="#e17055"></line><text x="862.5" y="594.0" fill="#e17055" font-size="44.5"><tspan x="862.5" y="594.0" dx="">We willen exact,</tspan><tspan x="862.5" y="647.4" dx="">i.p.v. benadering</tspan></text></g><g id="C7"><rect x="158" y="606" width="155" height="89" fill="#ffeaa7" stroke="#636e72" stroke-width="4"></rect><text x="235" y="665" fill="#636e72" font-size="44.5">EY</text></g><g id="D7"><rect x="325" y="606" width="107" height="89" fill="#ffeaa7" stroke="#636e72" stroke-width="4"></rect><text x="378" y="665" fill="#636e72" font-size="44.5">5</text></g><g id="E7"><rect x="444" y="606" width="114" height="89" fill="#ffeaa7" stroke="#636e72" stroke-width="4"></rect><text x="501" y="665" fill="#636e72" font-size="44.5">7</text></g><g id="C8_comment"><line x1="146" y1="751.5" x2="101.5" y2="751.5" stroke-width="4" stroke="#e17055"></line><text x="146" y="766" fill="#e17055" font-size="44.5" text-anchor="end" dx="-55.625"><tspan x="146.0" y="766.0" dx="-55.625">Match in</tspan><tspan x="146.0" y="819.4" dx="-55.625">1e kolom</tspan></text></g><g id="C8"><rect x="158" y="707" width="155" height="89" fill="#fdcb6e" stroke="#636e72" stroke-width="4"></rect><text x="235" y="766" fill="#636e72" font-size="44.5">DvW</text></g><g id="D8"><rect x="325" y="707" width="107" height="89" fill="#ffeaa7" stroke="#636e72" stroke-width="4"></rect><text x="378" y="766" fill="#636e72" font-size="44.5">5</text></g><g id="E8"><rect x="444" y="707" width="114" height="89" fill="#fdcb6e" stroke="#636e72" stroke-width="4"></rect><text x="501" y="766" fill="#636e72" font-size="44.5">7</text></g><g id="E8_comment"><line x1="570" y1="751.5" x2="614.5" y2="751.5" stroke-width="4" stroke="#e17055"></line><text x="570" y="766" fill="#e17055" font-size="44.5" text-anchor="start" dx="55.625"><tspan x="570.0" y="766.0" dx="55.625">Resultaat</tspan><tspan x="570.0" y="819.4" dx="55.625">uit 3e kolom</tspan></text></g><g id="C9"><rect x="158" y="808" width="155" height="89" fill="#ffeaa7" stroke="#636e72" stroke-width="4"></rect><text x="235" y="867" fill="#636e72" font-size="44.5">AvdV</text></g><g id="D9"><rect x="325" y="808" width="107" height="89" fill="#ffeaa7" stroke="#636e72" stroke-width="4"></rect><text x="378" y="867" fill="#636e72" font-size="44.5">6</text></g><g id="E9"><rect x="444" y="808" width="114" height="89" fill="#ffeaa7" stroke="#636e72" stroke-width="4"></rect><text x="501" y="867" fill="#636e72" font-size="44.5">9</text></g><g id="C10"><rect x="158" y="909" width="155" height="89" fill="#ffeaa7" stroke="#636e72" stroke-width="4"></rect><text x="235" y="968" fill="#636e72" font-size="44.5">FM</text></g><g id="D10"><rect x="325" y="909" width="107" height="89" fill="#ffeaa7" stroke="#636e72" stroke-width="4"></rect><text x="378" y="968" fill="#636e72" font-size="44.5">6</text></g><g id="E10"><rect x="444" y="909" width="114" height="89" fill="#ffeaa7" stroke="#636e72" stroke-width="4"></rect><text x="501" y="968" fill="#636e72" font-size="44.5">8</text></g></g></svg>