<svg viewBox="0 0 2133 1200" style="background-color:#dfe6e9" title="X.ZOEKEN-functie" alt="X.ZOEKEN-functie" font-family="Sans,Arial" dy="0.25em" text-anchor="middle" xmlns="http://www.w3.org/2000/svg"><g id="box" transform="translate(566.6666666666665 100.0)"><g id="C2"><circle cx="206.5" cy="145.5" r="35.6" fill="#ffeaa7" stroke="#636e72" stroke-width="4"></circle><text x="206" y="160" fill="#636e72" font-size="44.5">2</text></g><g id="E2"><circle cx="520.5" cy="145.5" r="35.6" fill="#74b9ff" stroke="#636e72" stroke-width="4"></circle><text x="520" y="160" fill="#636e72" font-size="44.5">3</text></g><g id="G2"><circle cx="723.5" cy="145.5" r="35.6" fill="#55efc4" stroke="#636e72" stroke-width="4"></circle><text x="723" y="160" fill="#636e72" font-size="44.5">1</text></g><g id="C3"><rect x="126" y="202" width="161" height="89" fill="transparent" stroke="transparent" stroke-width="4"></rect><text x="206" y="261" fill="#636e72" font-size="44.5">Student</text></g><g id="D3"><rect x="299" y="202" width="147" height="89" fill="transparent" stroke="transparent" stroke-width="4"></rect><text x="372" y="261" fill="#b2bec3" font-size="44.5">Lessen</text></g><g id="E3"><rect x="458" y="202" width="125" height="89" fill="transparent" stroke="transparent" stroke-width="4"></rect><text x="520" y="261" fill="#636e72" font-size="44.5">Cijfer</text></g><g id="G3"><rect x="643" y="202" width="161" height="89" fill="transparent" stroke="transparent" stroke-width="4"></rect><text x="723" y="261" fill="#636e72" font-size="44.5">Student</text></g><g id="H3"><rect x="816" y="202" width="117" height="89" fill="transparent" stroke="transparent" stroke-width="4"></rect><text x="874" y="261" fill="#636e72" font-size="44.5">Cijfer</text></g><g id="C4"><rect x="126" y="303" width="161" height="89" fill="#ffeaa7" stroke="#636e72" stroke-width="4"></rect><text x="206" y="362" fill="#636e72" font-size="44.5">LW</text></g><g id="D4"><rect x="299" y="303" width="147" height="89" fill="#C9D2D6" stroke="transparent" stroke-width="4"></rect><text x="372" y="362" fill="#b2bec3" font-size="44.5">7</text></g><g id="E4"><rect x="458" y="303" width="125" height="89" fill="#74b9ff" stroke="#636e72" stroke-width="4"></rect><text x="520" y="362" fill="#636e72" font-size="44.5">8</text></g><g id="G4"><rect x="643" y="303" width="161" height="89" fill="#55efc4" stroke="#636e72" stroke-width="4"></rect><text x="723" y="362" fill="#636e72" font-size="44.5">AvdV</text></g><g id="H4"><rect x="816" y="303" width="117" height="89" fill="#2d3436" stroke="#2d3436" stroke-width="4"></rect><text x="874" y="362" fill="#ffffff" font-size="44.5">9</text></g><g id="C5"><rect x="126" y="404" width="161" height="89" fill="#ffeaa7" stroke="#636e72" stroke-width="4"></rect><text x="206" y="463" fill="#636e72" font-size="44.5">MvB</text></g><g id="D5"><rect x="299" y="404" width="147" height="89" fill="#C9D2D6" stroke="transparent" stroke-width="4"></rect><text x="372" y="463" fill="#b2bec3" font-size="44.5">4</text></g><g id="E5"><rect x="458" y="404" width="125" height="89" fill="#74b9ff" stroke="#636e72" stroke-width="4"></rect><text x="520" y="463" fill="#636e72" font-size="44.5">7</text></g><g id="H4_comment"><line x1="874.5" y1="404" x2="874.5" y2="448.5" stroke-width="4" stroke="#2d3436"></line><text x="874.5" y="493.0" fill="#2d3436" font-size="44.5"><tspan x="874.5" y="493.0" dx="">X.ZOEKEN()</tspan><tspan x="874.5" y="546.4" dx="">functie</tspan></text></g><g id="C6"><rect x="126" y="505" width="161" height="89" fill="#ffeaa7" stroke="#636e72" stroke-width="4"></rect><text x="206" y="564" fill="#636e72" font-size="44.5">EY</text></g><g id="D6"><rect x="299" y="505" width="147" height="89" fill="#C9D2D6" stroke="transparent" stroke-width="4"></rect><text x="372" y="564" fill="#b2bec3" font-size="44.5">5</text></g><g id="E6"><rect x="458" y="505" width="125" height="89" fill="#74b9ff" stroke="#636e72" stroke-width="4"></rect><text x="520" y="564" fill="#636e72" font-size="44.5">7</text></g><g id="C7"><rect x="126" y="606" width="161" height="89" fill="#ffeaa7" stroke="#636e72" stroke-width="4"></rect><text x="206" y="665" fill="#636e72" font-size="44.5">DvW</text></g><g id="D7"><rect x="299" y="606" width="147" height="89" fill="#C9D2D6" stroke="transparent" stroke-width="4"></rect><text x="372" y="665" fill="#b2bec3" font-size="44.5">5</text></g><g id="E7"><rect x="458" y="606" width="125" height="89" fill="#74b9ff" stroke="#636e72" stroke-width="4"></rect><text x="520" y="665" fill="#636e72" font-size="44.5">7</text></g><g id="C8_comment"><line x1="114" y1="751.5" x2="69.5" y2="751.5" stroke-width="4" stroke="#e17055"></line><text x="114" y="766" fill="#e17055" font-size="44.5" text-anchor="end" dx="-55.625">Gevonden!</text></g><g id="C8"><rect x="126" y="707" width="161" height="89" fill="#fdcb6e" stroke="#636e72" stroke-width="4"></rect><text x="206" y="766" fill="#636e72" font-size="44.5">AvdV</text></g><g id="D8"><rect x="299" y="707" width="147" height="89" fill="#C9D2D6" stroke="transparent" stroke-width="4"></rect><text x="372" y="766" fill="#b2bec3" font-size="44.5">6</text></g><g id="E8"><rect x="458" y="707" width="125" height="89" fill="#0984e3" stroke="#636e72" stroke-width="4"></rect><text x="520" y="766" fill="#ffffff" font-size="44.5">9</text></g><g id="E8_comment"><line x1="595" y1="751.5" x2="639.5" y2="751.5" stroke-width="4" stroke="#e17055"></line><text x="595" y="766" fill="#e17055" font-size="44.5" text-anchor="start" dx="55.625"><tspan x="595.0" y="766.0" dx="55.625">Cijfer dat</tspan><tspan x="595.0" y="819.4" dx="55.625">we zochten</tspan></text></g><g id="C9"><rect x="126" y="808" width="161" height="89" fill="#ffeaa7" stroke="#636e72" stroke-width="4"></rect><text x="206" y="867" fill="#636e72" font-size="44.5">FM</text></g><g id="D9"><rect x="299" y="808" width="147" height="89" fill="#C9D2D6" stroke="transparent" stroke-width="4"></rect><text x="372" y="867" fill="#b2bec3" font-size="44.5">6</text></g><g id="E9"><rect x="458" y="808" width="125" height="89" fill="#74b9ff" stroke="#636e72" stroke-width="4"></rect><text x="520" y="867" fill="#636e72" font-size="44.5">8</text></g><g id="C10"><rect x="126" y="909" width="161" height="89" fill="#ffeaa7" stroke="#636e72" stroke-width="4"></rect><text x="206" y="968" fill="#636e72" font-size="44.5">RvC</text></g><g id="D10"><rect x="299" y="909" width="147" height="89" fill="#C9D2D6" stroke="transparent" stroke-width="4"></rect><text x="372" y="968" fill="#b2bec3" font-size="44.5">6</text></g><g id="E10"><rect x="458" y="909" width="125" height="89" fill="#74b9ff" stroke="#636e72" stroke-width="4"></rect><text x="520" y="968" fill="#636e72" font-size="44.5">7</text></g></g></svg>