<svg viewBox="0 0 2133 1200" style="background-color:#dfe6e9" title="X.ZOEKEN-functie-meerdere-criteria" alt="X.ZOEKEN-functie-meerdere-criteria" font-family="Sans,Arial" dy="0.25em" text-anchor="middle" xmlns="http://www.w3.org/2000/svg"><g><text x="2047" y="1128" fill="#b2bec3" font-weight="normal" font-size="24" text-anchor="end">door Tristan Bains</text></g><g><text x="2047" y="1092" fill="#b2bec3" font-weight="bold" font-size="36" text-anchor="end">Excel in een dag</text></g><g id="box" transform="translate(566.6666666666665 100.0)"><g id="C2"><rect x="370" y="101" width="160" height="89" fill="transparent" stroke="transparent" stroke-width="4"></rect><text x="450" y="160" fill="#636e72" font-size="44.5">Naam</text></g><g id="D2"><rect x="542" y="101" width="160" height="89" fill="#fdcb6e" stroke="#636e72" stroke-width="4"></rect><text x="622" y="160" fill="#636e72" font-size="44.5">Dennis</text></g><g id="C3"><rect x="370" y="202" width="160" height="89" fill="transparent" stroke="transparent" stroke-width="4"></rect><text x="450" y="261" fill="#636e72" font-size="44.5">Team</text></g><g id="D3"><rect x="542" y="202" width="160" height="89" fill="#fdcb6e" stroke="#636e72" stroke-width="4"></rect><text x="622" y="261" fill="#636e72" font-size="44.5">HR</text></g><g id="C4"><rect x="370" y="303" width="160" height="89" fill="transparent" stroke="transparent" stroke-width="4"></rect><text x="450" y="362" fill="#636e72" font-size="44.5">Jaren</text></g><g id="D4"><rect x="542" y="303" width="160" height="89" fill="#2d3436" stroke="#2d3436" stroke-width="4"></rect><text x="622" y="362" fill="#ffffff" font-size="44.5">17</text></g><g id="D4_comment"><line x1="714" y1="347.5" x2="758.5" y2="347.5" stroke-width="4" stroke="#2d3436"></line><text x="714" y="362" fill="#2d3436" font-size="44.5" text-anchor="start" dx="55.625"><tspan x="714.0" y="362.0" dx="55.625">X.ZOEKEN()</tspan><tspan x="714.0" y="415.4" dx="55.625">functie</tspan></text></g><g id="B6_comment"><line x1="220.5" y1="493" x2="220.5" y2="448.5" stroke-width="4" stroke="#e17055"></line><text x="220.5" y="433.7" fill="#e17055" font-size="44.5">Overbodig</text></g><g id="B6"><rect x="83" y="505" width="275" height="89" fill="transparent" stroke="transparent" stroke-width="4"></rect><text x="220" y="564" fill="#b2bec3" font-size="44.5">Hulpkolom</text></g><g id="C6"><rect x="370" y="505" width="160" height="89" fill="transparent" stroke="transparent" stroke-width="4"></rect><text x="450" y="564" fill="#636e72" font-size="44.5">Naam</text></g><g id="D6"><rect x="542" y="505" width="160" height="89" fill="transparent" stroke="transparent" stroke-width="4"></rect><text x="622" y="564" fill="#636e72" font-size="44.5">Team</text></g><g id="E6"><rect x="714" y="505" width="133" height="89" fill="transparent" stroke="transparent" stroke-width="4"></rect><text x="780" y="564" fill="#636e72" font-size="44.5">Jaren</text></g><g id="B7"><rect x="83" y="606" width="275" height="89" fill="#C9D2D6" stroke="transparent" stroke-width="4"></rect><text x="220" y="665" fill="#b2bec3" font-size="44.5">DennisLegal</text></g><g id="C7"><rect x="370" y="606" width="160" height="89" fill="#fdcb6e" stroke="#636e72" stroke-width="4"></rect><text x="450" y="665" fill="#636e72" font-size="44.5">Dennis</text></g><g id="D7"><rect x="542" y="606" width="160" height="89" fill="#ffeaa7" stroke="#636e72" stroke-width="4"></rect><text x="622" y="665" fill="#636e72" font-size="44.5">Legal</text></g><g id="E7"><rect x="714" y="606" width="133" height="89" fill="#ffeaa7" stroke="#636e72" stroke-width="4"></rect><text x="780" y="665" fill="#636e72" font-size="44.5">2</text></g><g id="B8"><rect x="83" y="707" width="275" height="89" fill="#C9D2D6" stroke="transparent" stroke-width="4"></rect><text x="220" y="766" fill="#b2bec3" font-size="44.5">AnnaLegal</text></g><g id="C8"><rect x="370" y="707" width="160" height="89" fill="#ffeaa7" stroke="#636e72" stroke-width="4"></rect><text x="450" y="766" fill="#636e72" font-size="44.5">Anna</text></g><g id="D8"><rect x="542" y="707" width="160" height="89" fill="#ffeaa7" stroke="#636e72" stroke-width="4"></rect><text x="622" y="766" fill="#636e72" font-size="44.5">Legal</text></g><g id="E8"><rect x="714" y="707" width="133" height="89" fill="#ffeaa7" stroke="#636e72" stroke-width="4"></rect><text x="780" y="766" fill="#636e72" font-size="44.5">5</text></g><g id="B9"><rect x="83" y="808" width="275" height="89" fill="#C9D2D6" stroke="transparent" stroke-width="4"></rect><text x="220" y="867" fill="#b2bec3" font-size="44.5">DennisHR</text></g><g id="C9"><rect x="370" y="808" width="160" height="89" fill="#fdcb6e" stroke="#636e72" stroke-width="4"></rect><text x="450" y="867" fill="#636e72" font-size="44.5">Dennis</text></g><g id="D9"><rect x="542" y="808" width="160" height="89" fill="#fdcb6e" stroke="#636e72" stroke-width="4"></rect><text x="622" y="867" fill="#636e72" font-size="44.5">HR</text></g><g id="E9"><rect x="714" y="808" width="133" height="89" fill="#fdcb6e" stroke="#636e72" stroke-width="4"></rect><text x="780" y="867" fill="#636e72" font-size="44.5">17</text></g><g id="E9_comment"><line x1="859" y1="852.5" x2="903.5" y2="852.5" stroke-width="4" stroke="#e17055"></line><text x="859" y="867" fill="#e17055" font-size="44.5" text-anchor="start" dx="55.625"><tspan x="859.0" y="867.0" dx="55.625">Enige rij die aan</tspan><tspan x="859.0" y="920.4" dx="55.625">beide criteria</tspan><tspan x="859.0" y="973.8" dx="55.625">voldoet</tspan></text></g><g id="B10"><rect x="83" y="909" width="275" height="89" fill="#C9D2D6" stroke="transparent" stroke-width="4"></rect><text x="220" y="968" fill="#b2bec3" font-size="44.5">LisaHR</text></g><g id="C10"><rect x="370" y="909" width="160" height="89" fill="#ffeaa7" stroke="#636e72" stroke-width="4"></rect><text x="450" y="968" fill="#636e72" font-size="44.5">Lisa</text></g><g id="D10"><rect x="542" y="909" width="160" height="89" fill="#fdcb6e" stroke="#636e72" stroke-width="4"></rect><text x="622" y="968" fill="#636e72" font-size="44.5">HR</text></g><g id="E10"><rect x="714" y="909" width="133" height="89" fill="#ffeaa7" stroke="#636e72" stroke-width="4"></rect><text x="780" y="968" fill="#636e72" font-size="44.5">3</text></g></g></svg>