<svg viewBox="0 0 2133 1200" style="background-color:#dfe6e9" title="X.ZOEKEN-functie-horizontaal-zoeken" alt="X.ZOEKEN-functie-horizontaal-zoeken" font-family="Sans,Arial" dy="0.25em" text-anchor="middle" xmlns="http://www.w3.org/2000/svg"><g><text x="2047" y="1128" fill="#b2bec3" font-weight="normal" font-size="24" text-anchor="end">door Tristan Bains</text></g><g><text x="2047" y="1092" fill="#b2bec3" font-weight="bold" font-size="36" text-anchor="end">Excel in een dag</text></g><g id="box" transform="translate(566.6666666666665 100.0)"><g id="D1"><circle cx="362.0" cy="44.5" r="35.6" fill="#55efc4" stroke="#636e72" stroke-width="4"></circle><text x="362" y="59" fill="#636e72" font-size="44.5">1</text></g><g id="D2"><rect x="297" y="101" width="130" height="89" fill="#55efc4" stroke="#636e72" stroke-width="4"></rect><text x="362" y="160" fill="#636e72" font-size="44.5">Feb</text></g><g id="E2"><rect x="439" y="101" width="130" height="89" fill="#2d3436" stroke="#2d3436" stroke-width="4"></rect><text x="504" y="160" fill="#ffffff" font-size="44.5">13</text></g><g id="E2_comment"><line x1="581" y1="145.5" x2="625.5" y2="145.5" stroke-width="4" stroke="#2d3436"></line><text x="581" y="160" fill="#2d3436" font-size="44.5" text-anchor="start" dx="55.625">X.ZOEKEN()</text></g><g id="D4"><rect x="297" y="303" width="130" height="89" fill="#ffeaa7" stroke="#636e72" stroke-width="4"></rect><text x="362" y="362" fill="#636e72" font-size="44.5">Jan</text></g><g id="E4"><rect x="439" y="303" width="130" height="89" fill="#fdcb6e" stroke="#636e72" stroke-width="4"></rect><text x="504" y="362" fill="#636e72" font-size="44.5">Feb</text></g><g id="F4"><rect x="581" y="303" width="130" height="89" fill="#ffeaa7" stroke="#636e72" stroke-width="4"></rect><text x="646" y="362" fill="#636e72" font-size="44.5">Mrt</text></g><g id="G4"><rect x="723" y="303" width="130" height="89" fill="#ffeaa7" stroke="#636e72" stroke-width="4"></rect><text x="788" y="362" fill="#636e72" font-size="44.5">Apr</text></g><g id="H4"><circle cx="917.0" cy="347.5" r="35.6" fill="#ffeaa7" stroke="#636e72" stroke-width="4"></circle><text x="917" y="362" fill="#636e72" font-size="44.5">2</text></g><g id="C5"><rect x="24" y="404" width="261" height="89" fill="#b2bec3" stroke="#636e72" stroke-width="4"></rect><text x="154" y="463" fill="#636e72" font-size="44.5">Eva</text></g><g id="D5"><rect x="297" y="404" width="130" height="89" fill="#C9D2D6" stroke="transparent" stroke-width="4"></rect><text x="362" y="463" fill="#b2bec3" font-size="44.5">11</text></g><g id="E5"><rect x="439" y="404" width="130" height="89" fill="#C9D2D6" stroke="transparent" stroke-width="4"></rect><text x="504" y="463" fill="#b2bec3" font-size="44.5">10</text></g><g id="F5"><rect x="581" y="404" width="130" height="89" fill="#C9D2D6" stroke="transparent" stroke-width="4"></rect><text x="646" y="463" fill="#b2bec3" font-size="44.5">11</text></g><g id="G5"><rect x="723" y="404" width="130" height="89" fill="#C9D2D6" stroke="transparent" stroke-width="4"></rect><text x="788" y="463" fill="#b2bec3" font-size="44.5">8</text></g><g id="C6"><rect x="24" y="505" width="261" height="89" fill="#b2bec3" stroke="#636e72" stroke-width="4"></rect><text x="154" y="564" fill="#636e72" font-size="44.5">Jerry</text></g><g id="D6"><rect x="297" y="505" width="130" height="89" fill="#C9D2D6" stroke="transparent" stroke-width="4"></rect><text x="362" y="564" fill="#b2bec3" font-size="44.5">2</text></g><g id="E6"><rect x="439" y="505" width="130" height="89" fill="#C9D2D6" stroke="transparent" stroke-width="4"></rect><text x="504" y="564" fill="#b2bec3" font-size="44.5">3</text></g><g id="F6"><rect x="581" y="505" width="130" height="89" fill="#C9D2D6" stroke="transparent" stroke-width="4"></rect><text x="646" y="564" fill="#b2bec3" font-size="44.5">2</text></g><g id="G6"><rect x="723" y="505" width="130" height="89" fill="#C9D2D6" stroke="transparent" stroke-width="4"></rect><text x="788" y="564" fill="#b2bec3" font-size="44.5">5</text></g><g id="C7"><rect x="24" y="606" width="261" height="89" fill="#636e72" stroke="#636e72" stroke-width="4"></rect><text x="154" y="665" fill="#ffffff" font-size="44.5">Roeland</text></g><g id="D7"><rect x="297" y="606" width="130" height="89" fill="#74b9ff" stroke="#636e72" stroke-width="4"></rect><text x="362" y="665" fill="#636e72" font-size="44.5">12</text></g><g id="E7"><rect x="439" y="606" width="130" height="89" fill="#0984e3" stroke="#636e72" stroke-width="4"></rect><text x="504" y="665" fill="#ffffff" font-size="44.5">13</text></g><g id="F7"><rect x="581" y="606" width="130" height="89" fill="#74b9ff" stroke="#636e72" stroke-width="4"></rect><text x="646" y="665" fill="#636e72" font-size="44.5">10</text></g><g id="G7"><rect x="723" y="606" width="130" height="89" fill="#74b9ff" stroke="#636e72" stroke-width="4"></rect><text x="788" y="665" fill="#636e72" font-size="44.5">17</text></g><g id="H7"><circle cx="917.0" cy="650.5" r="35.6" fill="#74b9ff" stroke="#636e72" stroke-width="4"></circle><text x="917" y="665" fill="#636e72" font-size="44.5">3</text></g><g id="C8"><rect x="24" y="707" width="261" height="89" fill="#b2bec3" stroke="#636e72" stroke-width="4"></rect><text x="154" y="766" fill="#636e72" font-size="44.5">Daan</text></g><g id="D8"><rect x="297" y="707" width="130" height="89" fill="#C9D2D6" stroke="transparent" stroke-width="4"></rect><text x="362" y="766" fill="#b2bec3" font-size="44.5">4</text></g><g id="E8"><rect x="439" y="707" width="130" height="89" fill="#C9D2D6" stroke="transparent" stroke-width="4"></rect><text x="504" y="766" fill="#b2bec3" font-size="44.5">11</text></g><g id="F8"><rect x="581" y="707" width="130" height="89" fill="#C9D2D6" stroke="transparent" stroke-width="4"></rect><text x="646" y="766" fill="#b2bec3" font-size="44.5">8</text></g><g id="G8"><rect x="723" y="707" width="130" height="89" fill="#C9D2D6" stroke="transparent" stroke-width="4"></rect><text x="788" y="766" fill="#b2bec3" font-size="44.5">6</text></g></g></svg>