<svg viewBox="0 0 2133 1200" style="background-color:#dfe6e9" title="X.ZOEKEN-functie-twee-dimensies" alt="X.ZOEKEN-functie-twee-dimensies" font-family="Sans,Arial" dy="0.25em" text-anchor="middle" xmlns="http://www.w3.org/2000/svg"><g id="box" transform="translate(566.6666666666665 100.0)"><g id="C1"><circle cx="181.5" cy="44.5" r="35.6" fill="#00b894" stroke="#636e72" stroke-width="4"></circle><text x="181" y="59" fill="#ffffff" font-size="44.5">1</text></g><g id="D1"><circle cx="336.5" cy="44.5" r="35.6" fill="#0984e3" stroke="#636e72" stroke-width="4"></circle><text x="336" y="59" fill="#ffffff" font-size="44.5">4</text></g><g id="C2"><rect x="110" y="101" width="143" height="89" fill="#00b894" stroke="#636e72" stroke-width="4"></rect><text x="181" y="160" fill="#ffffff" font-size="44.5">B</text></g><g id="D2"><rect x="265" y="101" width="143" height="89" fill="#0984e3" stroke="#636e72" stroke-width="4"></rect><text x="336" y="160" fill="#ffffff" font-size="44.5">Mrt</text></g><g id="E2"><rect x="420" y="101" width="143" height="89" fill="#2d3436" stroke="#2d3436" stroke-width="4"></rect><text x="491" y="160" fill="#ffffff" font-size="44.5">10</text></g><g id="E2_comment"><line x1="575" y1="145.5" x2="619.5" y2="145.5" stroke-width="4" stroke="#2d3436"></line><text x="575" y="160" fill="#2d3436" font-size="44.5" text-anchor="start" dx="55.625"><tspan x="575.0" y="160.0" dx="55.625">X.ZOEKEN() in</tspan><tspan x="575.0" y="213.4" dx="55.625">andere X.ZOEKEN()</tspan></text></g><g id="D5"><rect x="265" y="404" width="143" height="89" fill="#74b9ff" stroke="#636e72" stroke-width="4"></rect><text x="336" y="463" fill="#636e72" font-size="44.5">Jan</text></g><g id="E5"><rect x="420" y="404" width="143" height="89" fill="#74b9ff" stroke="#636e72" stroke-width="4"></rect><text x="491" y="463" fill="#636e72" font-size="44.5">Feb</text></g><g id="F5"><rect x="575" y="404" width="143" height="89" fill="#74b9ff" stroke="#636e72" stroke-width="4"></rect><text x="646" y="463" fill="#636e72" font-size="44.5">Mrt</text></g><g id="G5"><rect x="730" y="404" width="143" height="89" fill="#74b9ff" stroke="#636e72" stroke-width="4"></rect><text x="801" y="463" fill="#636e72" font-size="44.5">Apr</text></g><g id="H5"><circle cx="928.0" cy="448.5" r="35.6" fill="#74b9ff" stroke="#636e72" stroke-width="4"></circle><text x="928" y="463" fill="#636e72" font-size="44.5">5</text></g><g id="B6"><circle cx="55.0" cy="549.5" r="35.6" fill="#55efc4" stroke="#636e72" stroke-width="4"></circle><text x="55" y="564" fill="#636e72" font-size="44.5">2</text></g><g id="C6"><rect x="110" y="505" width="143" height="89" fill="#55efc4" stroke="#636e72" stroke-width="4"></rect><text x="181" y="564" fill="#636e72" font-size="44.5">A</text></g><g id="D6"><rect x="265" y="505" width="143" height="89" fill="#ffeaa7" stroke="#636e72" stroke-width="4"></rect><text x="336" y="564" fill="#636e72" font-size="44.5">14</text></g><g id="E6"><rect x="420" y="505" width="143" height="89" fill="#ffeaa7" stroke="#636e72" stroke-width="4"></rect><text x="491" y="564" fill="#636e72" font-size="44.5">6</text></g><g id="F6"><rect x="575" y="505" width="143" height="89" fill="#ffeaa7" stroke="#636e72" stroke-width="4"></rect><text x="646" y="564" fill="#636e72" font-size="44.5">2</text></g><g id="G6"><rect x="730" y="505" width="143" height="89" fill="#ffeaa7" stroke="#636e72" stroke-width="4"></rect><text x="801" y="564" fill="#636e72" font-size="44.5">17</text></g><g id="H6"><circle cx="928.0" cy="549.5" r="35.6" fill="#ffeaa7" stroke="#636e72" stroke-width="4"></circle><text x="928" y="564" fill="#636e72" font-size="44.5">3</text></g><g id="C7"><rect x="110" y="606" width="143" height="89" fill="#55efc4" stroke="#636e72" stroke-width="4"></rect><text x="181" y="665" fill="#636e72" font-size="44.5">B</text></g><g id="D7"><rect x="265" y="606" width="143" height="89" fill="#ffeaa7" stroke="#636e72" stroke-width="4"></rect><text x="336" y="665" fill="#636e72" font-size="44.5">2</text></g><g id="E7"><rect x="420" y="606" width="143" height="89" fill="#ffeaa7" stroke="#636e72" stroke-width="4"></rect><text x="491" y="665" fill="#636e72" font-size="44.5">12</text></g><g id="F7"><rect x="575" y="606" width="143" height="89" fill="#fdcb6e" stroke="#636e72" stroke-width="4"></rect><text x="646" y="665" fill="#636e72" font-size="44.5">10</text></g><g id="G7"><rect x="730" y="606" width="143" height="89" fill="#ffeaa7" stroke="#636e72" stroke-width="4"></rect><text x="801" y="665" fill="#636e72" font-size="44.5">6</text></g><g id="C8"><rect x="110" y="707" width="143" height="89" fill="#55efc4" stroke="#636e72" stroke-width="4"></rect><text x="181" y="766" fill="#636e72" font-size="44.5">C</text></g><g id="D8"><rect x="265" y="707" width="143" height="89" fill="#ffeaa7" stroke="#636e72" stroke-width="4"></rect><text x="336" y="766" fill="#636e72" font-size="44.5">16</text></g><g id="E8"><rect x="420" y="707" width="143" height="89" fill="#ffeaa7" stroke="#636e72" stroke-width="4"></rect><text x="491" y="766" fill="#636e72" font-size="44.5">8</text></g><g id="F8"><rect x="575" y="707" width="143" height="89" fill="#ffeaa7" stroke="#636e72" stroke-width="4"></rect><text x="646" y="766" fill="#636e72" font-size="44.5">4</text></g><g id="G8"><rect x="730" y="707" width="143" height="89" fill="#ffeaa7" stroke="#636e72" stroke-width="4"></rect><text x="801" y="766" fill="#636e72" font-size="44.5">0</text></g></g></svg>