<svg viewBox="0 0 2133 1200" style="background-color:#dfe6e9" title="X.ZOEKEN-functie-zoekmodus" alt="X.ZOEKEN-functie-zoekmodus" font-family="Sans,Arial" dy="0.25em" text-anchor="middle" xmlns="http://www.w3.org/2000/svg"><g id="box" transform="translate(566.6666666666665 100.0)"><g id="B1"><circle cx="89.5" cy="44.5" r="35.6" fill="#ffeaa7" stroke="#636e72" stroke-width="4"></circle><text x="89" y="59" fill="#636e72" font-size="44.5">2</text></g><g id="D1"><circle cx="381.5" cy="44.5" r="35.6" fill="#74b9ff" stroke="#636e72" stroke-width="4"></circle><text x="381" y="59" fill="#636e72" font-size="44.5">3</text></g><g id="B2"><rect x="12" y="101" width="155" height="89" fill="transparent" stroke="transparent" stroke-width="4"></rect><text x="89" y="160" fill="#636e72" font-size="44.5">Afdeling</text></g><g id="C2"><rect x="179" y="101" width="134" height="89" fill="transparent" stroke="transparent" stroke-width="4"></rect><text x="246" y="160" fill="#b2bec3" font-size="44.5">Maand</text></g><g id="D2"><rect x="325" y="101" width="113" height="89" fill="transparent" stroke="transparent" stroke-width="4"></rect><text x="381" y="160" fill="#636e72" font-size="44.5">Sales</text></g><g id="F2"><rect x="546" y="101" width="155" height="89" fill="transparent" stroke="transparent" stroke-width="4"></rect><text x="623" y="160" fill="#636e72" font-size="44.5">Afdeling</text></g><g id="G2"><rect x="713" y="101" width="141" height="89" fill="transparent" stroke="transparent" stroke-width="4"></rect><text x="783" y="160" fill="#636e72" font-size="44.5">Sales</text></g><g id="B3"><rect x="12" y="202" width="155" height="89" fill="#ffeaa7" stroke="#636e72" stroke-width="4"></rect><text x="89" y="261" fill="#636e72" font-size="44.5">A</text></g><g id="C3"><rect x="179" y="202" width="134" height="89" fill="#C9D2D6" stroke="transparent" stroke-width="4"></rect><text x="246" y="261" fill="#b2bec3" font-size="44.5">Feb</text></g><g id="D3"><rect x="325" y="202" width="113" height="89" fill="#74b9ff" stroke="#636e72" stroke-width="4"></rect><text x="381" y="261" fill="#636e72" font-size="44.5">3</text></g><g id="E3"><circle cx="492.0" cy="246.5" r="35.6" fill="#55efc4" stroke="#636e72" stroke-width="4"></circle><text x="492" y="261" fill="#636e72" font-size="44.5">1</text></g><g id="F3"><rect x="546" y="202" width="155" height="89" fill="#55efc4" stroke="#636e72" stroke-width="4"></rect><text x="623" y="261" fill="#636e72" font-size="44.5">B</text></g><g id="G3"><rect x="713" y="202" width="141" height="89" fill="#2d3436" stroke="#2d3436" stroke-width="4"></rect><text x="783" y="261" fill="#ffffff" font-size="44.5">12</text></g><g id="G3_comment"><line x1="866" y1="246.5" x2="910.5" y2="246.5" stroke-width="4" stroke="#2d3436"></line><text x="866" y="261" fill="#2d3436" font-size="44.5" text-anchor="start" dx="55.625">zoekmodus 1</text></g><g id="B4"><rect x="12" y="303" width="155" height="89" fill="#fdcb6e" stroke="#636e72" stroke-width="4"></rect><text x="89" y="362" fill="#636e72" font-size="44.5">B</text></g><g id="C4"><rect x="179" y="303" width="134" height="89" fill="#C9D2D6" stroke="transparent" stroke-width="4"></rect><text x="246" y="362" fill="#b2bec3" font-size="44.5">Feb</text></g><g id="D4"><rect x="325" y="303" width="113" height="89" fill="#0984e3" stroke="#636e72" stroke-width="4"></rect><text x="381" y="362" fill="#ffffff" font-size="44.5">12</text></g><g id="E4"><circle cx="492.0" cy="347.5" r="35.6" fill="#55efc4" stroke="#636e72" stroke-width="4"></circle><text x="492" y="362" fill="#636e72" font-size="44.5">1</text></g><g id="F4"><rect x="546" y="303" width="155" height="89" fill="#55efc4" stroke="#636e72" stroke-width="4"></rect><text x="623" y="362" fill="#636e72" font-size="44.5">B</text></g><g id="G4"><rect x="713" y="303" width="141" height="89" fill="#2d3436" stroke="#2d3436" stroke-width="4"></rect><text x="783" y="362" fill="#ffffff" font-size="44.5">8</text></g><g id="G4_comment"><line x1="866" y1="347.5" x2="910.5" y2="347.5" stroke-width="4" stroke="#2d3436"></line><text x="866" y="362" fill="#2d3436" font-size="44.5" text-anchor="start" dx="55.625">zoekmodus -1</text></g><g id="B5"><rect x="12" y="404" width="155" height="89" fill="#ffeaa7" stroke="#636e72" stroke-width="4"></rect><text x="89" y="463" fill="#636e72" font-size="44.5">A</text></g><g id="C5"><rect x="179" y="404" width="134" height="89" fill="#C9D2D6" stroke="transparent" stroke-width="4"></rect><text x="246" y="463" fill="#b2bec3" font-size="44.5">Mrt</text></g><g id="D5"><rect x="325" y="404" width="113" height="89" fill="#74b9ff" stroke="#636e72" stroke-width="4"></rect><text x="381" y="463" fill="#636e72" font-size="44.5">5</text></g><g id="B6"><rect x="12" y="505" width="155" height="89" fill="#ffeaa7" stroke="#636e72" stroke-width="4"></rect><text x="89" y="564" fill="#636e72" font-size="44.5">B</text></g><g id="C6"><rect x="179" y="505" width="134" height="89" fill="#C9D2D6" stroke="transparent" stroke-width="4"></rect><text x="246" y="564" fill="#b2bec3" font-size="44.5">Mrt</text></g><g id="D6"><rect x="325" y="505" width="113" height="89" fill="#74b9ff" stroke="#636e72" stroke-width="4"></rect><text x="381" y="564" fill="#636e72" font-size="44.5">11</text></g><g id="B7"><rect x="12" y="606" width="155" height="89" fill="#ffeaa7" stroke="#636e72" stroke-width="4"></rect><text x="89" y="665" fill="#636e72" font-size="44.5">A</text></g><g id="C7"><rect x="179" y="606" width="134" height="89" fill="#C9D2D6" stroke="transparent" stroke-width="4"></rect><text x="246" y="665" fill="#b2bec3" font-size="44.5">Apr</text></g><g id="D7"><rect x="325" y="606" width="113" height="89" fill="#74b9ff" stroke="#636e72" stroke-width="4"></rect><text x="381" y="665" fill="#636e72" font-size="44.5">9</text></g><g id="B8"><rect x="12" y="707" width="155" height="89" fill="#fdcb6e" stroke="#636e72" stroke-width="4"></rect><text x="89" y="766" fill="#636e72" font-size="44.5">B</text></g><g id="C8"><rect x="179" y="707" width="134" height="89" fill="#C9D2D6" stroke="transparent" stroke-width="4"></rect><text x="246" y="766" fill="#b2bec3" font-size="44.5">Apr</text></g><g id="D8"><rect x="325" y="707" width="113" height="89" fill="#0984e3" stroke="#636e72" stroke-width="4"></rect><text x="381" y="766" fill="#ffffff" font-size="44.5">8</text></g><g id="B9"><rect x="12" y="808" width="155" height="89" fill="#ffeaa7" stroke="#636e72" stroke-width="4"></rect><text x="89" y="867" fill="#636e72" font-size="44.5">A</text></g><g id="C9"><rect x="179" y="808" width="134" height="89" fill="#C9D2D6" stroke="transparent" stroke-width="4"></rect><text x="246" y="867" fill="#b2bec3" font-size="44.5">Mei</text></g><g id="D9"><rect x="325" y="808" width="113" height="89" fill="#74b9ff" stroke="#636e72" stroke-width="4"></rect><text x="381" y="867" fill="#636e72" font-size="44.5">9</text></g></g></svg>